<?xml version="1.0" encoding="utf-8"?>
<!-- Generator: Adobe Illustrator 26.2.1, SVG Export Plug-In . SVG Version: 6.00 Build 0)  -->
<svg version="1.1" id="Layer_1" xmlns="http://www.w3.org/2000/svg" xmlns:xlink="http://www.w3.org/1999/xlink" x="0px" y="0px"
	 viewBox="0 0 36 36" style="enable-background:new 0 0 36 36;" xml:space="preserve">
<style type="text/css">
	.st0{fill:#626269;stroke:#F0F0F7;stroke-width:1.8;stroke-miterlimit:10;}
</style>
<path class="st0" d="M24.5,9.9c-1.2-0.4-2.3-0.5-3.4-0.1c-0.5,0.2-1.3,0.6-1.8,1S18,12.1,18,12.1s-0.8-0.9-1.3-1.3
	c-0.5-0.4-1.3-0.8-1.8-1c-1.1-0.4-2.2-0.3-3.4,0.1c-1.8,0.7-3.3,2.5-3.3,4.8c0,3.5,2.3,5.6,3.5,6.7c1.7,1.7,6.4,4.9,6.4,4.9
	s4.7-3.2,6.4-4.9c1.2-1.2,3.5-3.2,3.5-6.7C27.9,12.4,26.3,10.6,24.5,9.9z"/>
</svg>
