<?xml version="1.0" encoding="utf-8"?>
<!-- Generator: Adobe Illustrator 26.2.1, SVG Export Plug-In . SVG Version: 6.00 Build 0)  -->
<svg version="1.1" id="Layer_1" xmlns="http://www.w3.org/2000/svg" xmlns:xlink="http://www.w3.org/1999/xlink"  x="0px" y="0px" 
	 viewBox="0 0 300 200" style="enable-background:new 0 0 300 200;" xml:space="preserve">
<style type="text/css">
	.st0{fill:#323242;}
	.st1{fill:#323242;stroke:#000000;stroke-miterlimit:10;}
	.st2{fill:#333333;stroke:#000000;stroke-width:0.9338;stroke-miterlimit:10;}
	.st3{fill:#4A74FC;}
	.st4{fill:#4A74FC;stroke:#4A74FC;stroke-miterlimit:10;}
	.st5{fill:#4A74FC;stroke:#4A74FC;stroke-width:0.9338;stroke-miterlimit:20;}
</style>


<g id="패스_333_1_">
	<path class="st5" d="M169.7,176.4h-37.5c-3.8,0-6.9-3.1-6.9-6.9V146c0-2.1,1-4.1,2.6-5.4l18.7-14.8c2.5-2,6-2,8.5,0l18.7,14.8
		c1.7,1.3,2.6,3.3,2.6,5.4v23.5C176.6,173.4,173.5,176.4,169.7,176.4z M151,127.7c-0.8,0-1.6,0.3-2.2,0.8L130,143.2
		c-0.9,0.7-1.4,1.7-1.4,2.8v23.5c0,2,1.6,3.6,3.6,3.6h37.5c2,0,3.6-1.6,3.6-3.6V146c0-1.1-0.5-2.1-1.4-2.8l-18.7-14.8
		C152.6,127.9,151.8,127.7,151,127.7z"/>
</g>



</svg>