<svg xmlns="http://www.w3.org/2000/svg" width="142" height="60" viewBox="0 0 142 60">
    <defs>
        <clipPath id="9g26d5f46a">
            <path data-name="사각형 2736" style="fill:none" d="M0 0h36.793v40H0z"/>
        </clipPath>
    </defs>
    <g data-name="그룹 10820">
        <g data-name="그룹 10819" transform="translate(95.207 18)" style="clip-path:url(#9g26d5f46a)">
            <path data-name="선 335" transform="translate(12.122 1.91)" style="stroke-linecap:round;stroke-linejoin:round;stroke:#5e5e5e;stroke-width:3.5px;fill:none" d="M0 0v4.423"/>
            <path data-name="선 336" transform="translate(28.721 1.91)" style="stroke-linecap:round;stroke-linejoin:round;stroke:#5e5e5e;stroke-width:3.5px;fill:none" d="M0 0v4.423"/>
            <path data-name="패스 12002" d="M36.454 6.467a2.184 2.184 0 0 0-2.183-2.183H5.893A2.184 2.184 0 0 0 3.71 6.467v6.338h32.744z" transform="translate(.339 .392)" style="fill:#00b493"/>
            <path data-name="패스 12003" d="M3.71 12.091v24.621a2.184 2.184 0 0 0 2.183 2.183h28.378a2.184 2.184 0 0 0 2.183-2.183V12.091z" transform="translate(.339 1.106)" style="fill:#ebebeb"/>
            <path data-name="패스 12004" d="M4.049 12.091v.365A46 46 0 0 1 .187 30.639a2.176 2.176 0 0 0 2 3.05h28.318s6.288-1.6 6.288-21.6z" transform="translate(0 1.106)" style="fill:#f3f3f3"/>
            <path data-name="선 337" transform="translate(8.77 18.606)" style="stroke:#99e1d4;stroke-width:1.5px;stroke-linecap:round;stroke-linejoin:round;fill:none" d="M0 0h12.044"/>
            <path data-name="선 338" transform="translate(8.132 23.159)" style="stroke:#99e1d4;stroke-width:1.5px;stroke-linecap:round;stroke-linejoin:round;fill:none" d="M0 0h5.146"/>
        </g>
    </g>
    <path data-name="사각형 2833" style="fill:none" d="M0 0h142v60H0z"/>
</svg>
