<svg xmlns="http://www.w3.org/2000/svg" width="20" height="20" viewBox="0 0 20 20">
    <g data-name="그룹 11027">
        <g data-name="그룹 10866" transform="translate(-131 -415)">
            <circle data-name="타원 367" cx="10" cy="10" r="10" transform="translate(131 415)" style="fill:#f6f6fa"/>
        </g>
        <path data-name="패스 12056" d="M10.887 28.538 9.7 27.334a.7.7 0 0 0-.881-.087l-.125.087-.758.483a1.01 1.01 0 0 1-1.217-.112L5.522 26.6l-1.105-1.191a.993.993 0 0 1-.112-1.217l.5-.774.075-.107a.714.714 0 0 0-.1-.882l-1.19-1.192a.705.705 0 0 0-.944-.062l-1.105.881a1.127 1.127 0 0 0-.4 1.192 10.42 10.42 0 0 0 3 4.743 10.391 10.391 0 0 0 4.73 2.992 1.155 1.155 0 0 0 1.192-.4l.826-1.049.007.007.05-.062a.708.708 0 0 0-.059-.941z" transform="translate(3.899 -16.021)" style="fill:#6e90fd"/>
    </g>
</svg>
