<svg xmlns="http://www.w3.org/2000/svg" width="142" height="60" viewBox="0 0 142 60">
    <defs>
        <clipPath id="oyi3aypn3a">
            <path data-name="패스 11949" d="M26.654 2.8 22.81 40.693a3.119 3.119 0 0 0 2.79 3.418l31.588 3.2a3.122 3.122 0 0 0 3.42-2.789l3.841-37.883c.01-.1.015-.2.016-.3V6.3a3.12 3.12 0 0 0-2.806-3.08L30.072.016A3.068 3.068 0 0 0 29.754 0a3.12 3.12 0 0 0-3.1 2.8" transform="translate(-22.794)" style="fill:none"/>
        </clipPath>
        <clipPath id="yq6jx3bf1b">
            <path data-name="사각형 2719" style="fill:none" d="M0 0h61.11v57H0z"/>
        </clipPath>
        <clipPath id="qqmjw5ytfc">
            <path data-name="패스 11955" d="M1.839 41.82a15.8 15.8 0 1 0 15.8-15.8 15.8 15.8 0 0 0-15.8 15.8" transform="translate(-1.839 -26.019)" style="fill:none"/>
        </clipPath>
        <clipPath id="c8yh6o2ldd">
            <path data-name="사각형 2720" style="fill:none" d="M0 0h34.739v34.739H0z"/>
        </clipPath>
    </defs>
    <g data-name="그룹 11010" transform="translate(-194.674 -72.5)">
        <path data-name="패스 11948" d="M57.188 47.316 25.6 44.112a3.121 3.121 0 0 1-2.789-3.419l3.842-37.887a3.121 3.121 0 0 1 3.42-2.79l31.587 3.2a3.12 3.12 0 0 1 2.789 3.419l-3.843 37.891a3.12 3.12 0 0 1-3.418 2.789" transform="translate(262.318 74)" style="fill:#f3f3f3"/>
        <g data-name="그룹 10783">
            <g data-name="그룹 10782" style="clip-path:url(#oyi3aypn3a)" transform="translate(285.112 74)">
                <circle data-name="타원 362" cx="15.801" cy="15.801" r="15.801" transform="translate(-16.008 22.251)" style="stroke-width:3.678px;stroke-miterlimit:10;stroke:#e2e2e2;fill:none"/>
            </g>
        </g>
        <g data-name="그룹 10785">
            <g data-name="그룹 10784" style="clip-path:url(#yq6jx3bf1b)" transform="translate(265.674 74)">
                <path data-name="선 328" transform="translate(39.384 11.207)" style="stroke-linejoin:round;stroke-linecap:round;stroke:#b7c7fe;stroke-width:2.744px;fill:none" d="m0 0 13.452 1.364"/>
                <path data-name="선 329" transform="translate(38.74 17.562)" style="stroke-linejoin:round;stroke-linecap:round;stroke:#b7c7fe;stroke-width:2.744px;fill:none" d="m0 0 4.629.47"/>
            </g>
        </g>
        <g data-name="그룹 10787">
            <g data-name="그룹 10786" style="clip-path:url(#qqmjw5ytfc)" transform="translate(267.242 96.189)">
                <path data-name="패스 11950" d="M27.626 44.595a4.794 4.794 0 0 0 1.087-3.048v-.572a9.156 9.156 0 0 0-18.311 0v.572a4.793 4.793 0 0 0 .944 2.865" transform="translate(-3.1 -26.873)" style="fill:#b5b5b6"/>
                <path data-name="패스 11951" d="M26.049 44.571h-.005v-1.022c0-1.426-2.114-2.744-2.673-3.819-.858-1.649-1.682-2.723-3.869-2.723-2.052 0-2.772.945-3.639 2.423-.659 1.125-2.9 2.558-2.9 4.119v1.022h-.09a2.089 2.089 0 0 0 0 4.179h.258a6.54 6.54 0 0 0 12.747 0h.173a2.089 2.089 0 0 0 0-4.179" transform="translate(-3.155 -27.636)" style="fill:#f4d3b9"/>
                <path data-name="패스 11952" d="M18.03 47.881a.5.5 0 0 1-.5-.5v-.337a.5.5 0 1 1 1 0v.337a.5.5 0 0 1-.5.5" transform="translate(-4.149 -29.041)" style="fill:#4d4d4d"/>
                <path data-name="패스 11953" d="M23.713 47.881a.5.5 0 0 1-.5-.5v-.337a.5.5 0 1 1 1 0v.337a.5.5 0 0 1-.5.5" transform="translate(-4.985 -29.041)" style="fill:#4d4d4d"/>
                <path data-name="선 330" transform="translate(15.106 14.454)" style="stroke:#edc1a4;stroke-width:.875px;stroke-linecap:round;stroke-miterlimit:10;fill:none" d="M0 0h2.252"/>
                <path data-name="선 331" transform="translate(14.278 16.016)" style="stroke:#edc1a4;stroke-width:.875px;stroke-linecap:round;stroke-miterlimit:10;fill:none" d="M0 0h3.906"/>
                <path data-name="패스 11954" d="M20.681 49.373h-.07a2.292 2.292 0 0 0-2.439 2.291s1.942.55 2.474-.721c.531 1.272 2.474.721 2.474.721a2.292 2.292 0 0 0-2.439-2.291" transform="translate(-4.243 -29.457)" style="fill:#b5b5b6"/>
            </g>
        </g>
        <path data-name="선 332" transform="translate(293.713 123.645)" style="stroke:#5e5e5e;stroke-linejoin:round;stroke-linecap:round;stroke-width:3.678px;fill:none" d="m0 0 5.911 5.787"/>
        <circle data-name="타원 363" cx="15.801" cy="15.801" r="15.801" transform="translate(267.242 96.189)" style="stroke:#4a74fb;stroke-width:3.678px;stroke-miterlimit:10;fill:none"/>
        <g data-name="그룹 10790" style="opacity:.2">
            <g data-name="그룹 10789">
                <g data-name="그룹 10788" style="clip-path:url(#c8yh6o2ldd)" transform="translate(265.674 94.62)">
                    <path data-name="패스 11956" d="M17.64 26.019a15.8 15.8 0 1 1-15.8 15.8 15.8 15.8 0 0 1 15.8-15.8" transform="translate(-.271 -24.45)" style="fill:#fff"/>
                    <circle data-name="타원 364" cx="15.801" cy="15.801" r="15.801" transform="translate(1.568 1.568)" style="stroke:#4a74fb;stroke-width:3.678px;stroke-miterlimit:10;fill:none"/>
                </g>
            </g>
        </g>
    </g>
    <path data-name="사각형 2833" style="fill:none" d="M0 0h142v60H0z"/>
</svg>
