<svg xmlns="http://www.w3.org/2000/svg" width="142" height="60" viewBox="0 0 142 60">
    <defs>
        <clipPath id="gghfvt2p2a">
            <path data-name="사각형 2735" style="fill:none" d="M0 0h42.621v40H0z"/>
        </clipPath>
    </defs>
    <g data-name="8">
        <g data-name="그룹 10818">
            <g data-name="그룹 10817" transform="translate(89.38 18)" style="clip-path:url(#gghfvt2p2a)">
                <path data-name="패스 11999" d="M35.383 4.592A20.044 20.044 0 0 0 22.626 0a1.4 1.4 0 0 0-.159.006A20 20 0 0 0 4.435 28.3L.147 37.7a1.632 1.632 0 0 0 2.159 2.162l8.384-3.81a20 20 0 0 0 24.693-31.46" style="fill:#ebebeb"/>
                <path data-name="패스 12000" d="M18.344 18.888a1.817 1.817 0 0 0-1.288.5 1.877 1.877 0 0 0 0 2.544 1.913 1.913 0 0 0 2.574 0 1.632 1.632 0 0 0 .5-1.258 1.815 1.815 0 0 0-.5-1.288 1.765 1.765 0 0 0-1.287-.5" transform="translate(4.144 4.727)" style="fill:#6e90fd"/>
                <path data-name="패스 12001" d="M23 12.18a3.37 3.37 0 0 0-1.58-1.4 5.26 5.26 0 0 0-2.449-.5 4.91 4.91 0 0 0-2.4.556 4.121 4.121 0 0 0-1.639 1.522 3.95 3.95 0 0 0-.588 2.163s-.088 1.288 1.433 1.288c1.552 0 1.492-1.288 1.492-1.288a1.56 1.56 0 0 1 .469-1.169 1.686 1.686 0 0 1 1.259-.469 1.919 1.919 0 0 1 1.224.35 1.229 1.229 0 0 1 .44 1 1.526 1.526 0 0 1-.351 1 7.378 7.378 0 0 1-1.174 1.067 4.4 4.4 0 0 0-1.318 1.5 4.586 4.586 0 0 0-.379 2.047h2.778a2.329 2.329 0 0 1 .351-1.258 5.544 5.544 0 0 1 1.259-1.259 3.8 3.8 0 0 0 1.7-3.067A4.065 4.065 0 0 0 23 12.18" transform="translate(3.589 2.571)" style="fill:#6e90fd"/>
            </g>
        </g>
        <path data-name="사각형 2833" style="fill:none" d="M0 0h142v60H0z"/>
    </g>
</svg>
