<svg xmlns="http://www.w3.org/2000/svg" width="16" height="16" viewBox="0 0 16 16">
    <g transform="translate(-77.826 -405.307)">
        <path data-name="패스 1506" d="M85.961 408.149a5.127 5.127 0 0 0-4.577 7.435L80.1 418.4l2.591-1.177a5.127 5.127 0 0 0 7.218-.681 5.126 5.126 0 0 0-.68-7.218 5.129 5.129 0 0 0-3.27-1.177z" style="fill:#b9cafe"/>
        <path data-name="패스 1506 - 윤곽선" d="M85.959 407.694a5.6 5.6 0 0 1 3.561 1.281l.021.018a5.582 5.582 0 0 1-6.912 8.761l-2.34 1.063a.455.455 0 0 1-.6-.6l1.193-2.626a5.622 5.622 0 0 1-.5-2.315 5.579 5.579 0 0 1 5.579-5.58zm2.964 1.967a4.686 4.686 0 0 0-2.961-1.057 4.669 4.669 0 0 0-4.669 4.67 4.705 4.705 0 0 0 .5 2.105.455.455 0 0 1 .008.393l-.779 1.715 1.487-.676a.455.455 0 0 1 .478.064 4.672 4.672 0 0 0 5.958-7.2z" style="fill:#b9cafe"/>
        <circle data-name="타원 350" cx=".642" cy=".642" r=".642" transform="translate(82.77 412.647)" style="fill:#fff"/>
        <circle data-name="타원 351" cx=".642" cy=".642" r=".642" transform="translate(85.292 412.647)" style="fill:#fff"/>
        <circle data-name="타원 352" cx=".642" cy=".642" r=".642" transform="translate(87.814 412.647)" style="fill:#fff"/>
        <path data-name="사각형 2160" transform="translate(77.826 405.307)" style="fill:none" d="M0 0h16v16H0z"/>
    </g>
</svg>
