<svg xmlns="http://www.w3.org/2000/svg" width="48" height="48" viewBox="0 0 48 48">
    <g data-name="그룹 10866">
        <circle data-name="타원 367" cx="24" cy="24" r="24" style="fill:#f6f6fa"/>
    </g>
    <path data-name="패스 12056" d="m22.638 37.561-2.624-2.65a1.533 1.533 0 0 0-1.939-.191l-.275.191-1.668 1.063a2.222 2.222 0 0 1-2.678-.245L10.831 33.3 8.4 30.674A2.184 2.184 0 0 1 8.154 28l1.091-1.7.166-.237a1.571 1.571 0 0 0-.218-1.941L6.573 21.5a1.552 1.552 0 0 0-2.073-.142L2.064 23.3a2.479 2.479 0 0 0-.874 2.62A22.931 22.931 0 0 0 7.8 36.358a22.867 22.867 0 0 0 10.41 6.584 2.542 2.542 0 0 0 2.623-.875l1.817-2.309.015.015.109-.137a1.558 1.558 0 0 0-.136-2.075z" transform="translate(11.896 -8.023)" style="fill:#00b594"/>
</svg>
