<svg xmlns="http://www.w3.org/2000/svg" width="34" height="34" viewBox="0 0 34 34">
    <g data-name="그룹 11445">
        <path data-name="패스 12589" d="M9.579 20.872s5.194-2.865 8.049-.17c3.239 3.052 7.132 1.955 8.7-1.352l2.159 5.389-6.214 4.684-7.131 2.057-4.242-5.449-1.33-5.159z" transform="translate(-1.435 -2.902)" style="fill:#4a74fc"/>
        <path data-name="패스 12590" d="M26.169 4.57H9.781A3.283 3.283 0 0 0 6.5 7.851V29.16a1.641 1.641 0 0 0 1.641 1.64H27.81a1.647 1.647 0 0 0 1.64-1.641V7.851a3.278 3.278 0 0 0-3.281-3.281zm-8.194 22.95a7.378 7.378 0 1 1 7.325-7.378 7.339 7.339 0 0 1-7.325 7.378z" transform="translate(-.975 -.685)" style="fill:#e7e7ea"/>
        <path data-name="패스 12591" d="M11.583 10.885a1.233 1.233 0 1 0-1.233-1.232 1.233 1.233 0 0 0 1.233 1.232z" transform="translate(-1.552 -1.263)" style="fill:#929299"/>
        <path data-name="패스 12592" d="M16.139 9.653a1.228 1.228 0 1 0-.009 0z" transform="translate(-2.419 -1.263)" style="fill:#929299"/>
    </g>
</svg>
