<svg xmlns="http://www.w3.org/2000/svg" xmlns:xlink="http://www.w3.org/1999/xlink" width="24" height="24" viewBox="0 0 24 24">
  <defs>
    <clipPath id="clip-path">
      <rect id="사각형_1935" data-name="사각형 1935" width="18" height="20.051" fill="none"/>
    </clipPath>
    <clipPath id="clip-path-2">
      <path id="패스_9327" data-name="패스 9327" d="M.361,1.547A1.56,1.56,0,0,0,0,2.642V19.882a1.56,1.56,0,0,0,.361,1.1l.058.056,9.658-9.658v-.228L.419,1.49Z" transform="translate(0 -1.49)" fill="none"/>
    </clipPath>
    <linearGradient id="linear-gradient" x1="0.259" y1="0.977" x2="0.268" y2="0.977" gradientUnits="objectBoundingBox">
      <stop offset="0" stop-color="#4595d1"/>
      <stop offset="0.007" stop-color="#4496d2"/>
      <stop offset="0.26" stop-color="#3db7ea"/>
      <stop offset="0.512" stop-color="#48c0ec"/>
      <stop offset="0.76" stop-color="#5bc2e5"/>
      <stop offset="1" stop-color="#5ec3e3"/>
    </linearGradient>
    <clipPath id="clip-path-3">
      <path id="패스_9328" data-name="패스 9328" d="M59.267,42.579v.228l3.219,3.221.073-.041,3.814-2.167a1.184,1.184,0,0,0,0-2.251L62.559,39.4l-.073-.041Z" transform="translate(-59.267 -39.359)" fill="none"/>
    </clipPath>
    <linearGradient id="linear-gradient-2" x1="-1.229" y1="2.003" x2="-1.209" y2="2.003" gradientUnits="objectBoundingBox">
      <stop offset="0" stop-color="#ffdf04"/>
      <stop offset="0.409" stop-color="#fabb0b"/>
      <stop offset="0.775" stop-color="#f5a215"/>
      <stop offset="1" stop-color="#f49919"/>
    </linearGradient>
    <clipPath id="clip-path-4">
      <path id="패스_9329" data-name="패스 9329" d="M2.122,68.683a1.268,1.268,0,0,0,1.62.048l11.388-6.47-3.292-3.293Z" transform="translate(-2.122 -58.968)" fill="none"/>
    </clipPath>
    <linearGradient id="linear-gradient-3" x1="0.081" y1="0.803" x2="0.091" y2="0.803" gradientUnits="objectBoundingBox">
      <stop offset="0" stop-color="#e74049"/>
      <stop offset="1" stop-color="#c20e62"/>
    </linearGradient>
    <clipPath id="clip-path-5">
      <path id="패스_9330" data-name="패스 9330" d="M2.853,0a.994.994,0,0,0-.731.31l9.716,9.716L15.13,6.733,3.742.263A1.807,1.807,0,0,0,2.883,0Z" transform="translate(-2.122 -0.001)" fill="none"/>
    </clipPath>
    <linearGradient id="linear-gradient-4" x1="0.079" y1="1.424" x2="0.089" y2="1.424" gradientUnits="objectBoundingBox">
      <stop offset="0" stop-color="#309f71"/>
      <stop offset="0.068" stop-color="#2ba671"/>
      <stop offset="0.476" stop-color="#4eb16f"/>
      <stop offset="0.801" stop-color="#5fb468"/>
      <stop offset="1" stop-color="#63b563"/>
    </linearGradient>
    <clipPath id="clip-path-7">
      <rect id="사각형_1930" data-name="사각형 1930" width="13.008" height="6.805" fill="none"/>
    </clipPath>
    <clipPath id="clip-path-8">
      <rect id="사각형_1931" data-name="사각형 1931" width="0.419" height="1.209" fill="none"/>
    </clipPath>
    <clipPath id="clip-path-9">
      <rect id="사각형_1932" data-name="사각형 1932" width="4.704" height="3.292" fill="none"/>
    </clipPath>
    <clipPath id="clip-path-10">
      <rect id="사각형_1933" data-name="사각형 1933" width="18" height="10.025" fill="none"/>
    </clipPath>
  </defs>
  <g id="AOS_icon" transform="translate(-379 -129)">
    <rect id="사각형_1936" data-name="사각형 1936" width="24" height="24" transform="translate(379 129)" fill="none"/>
    <g id="그룹_8186" data-name="그룹 8186" transform="translate(382 130.975)">
      <g id="그룹_8185" data-name="그룹 8185" clip-path="url(#clip-path)">
        <g id="그룹_8164" data-name="그룹 8164" transform="translate(0 0.253)">
          <g id="그룹_8163" data-name="그룹 8163" clip-path="url(#clip-path-2)">
            <rect id="사각형_1926" data-name="사각형 1926" width="20.945" height="20.945" transform="translate(-9.772 9.772) rotate(-45)" fill="url(#linear-gradient)"/>
          </g>
        </g>
        <g id="그룹_8166" data-name="그룹 8166" transform="translate(10.076 6.692)">
          <g id="그룹_8165" data-name="그룹 8165" clip-path="url(#clip-path-3)">
            <rect id="사각형_1927" data-name="사각형 1927" width="8.196" height="6.668" transform="translate(0 0)" fill="url(#linear-gradient-2)"/>
          </g>
        </g>
        <g id="그룹_8168" data-name="그룹 8168" transform="translate(0.361 10.026)">
          <g id="그룹_8167" data-name="그룹 8167" clip-path="url(#clip-path-4)">
            <rect id="사각형_1928" data-name="사각형 1928" width="16.37" height="16.37" transform="translate(-5.071 5.071) rotate(-45)" fill="url(#linear-gradient-3)"/>
          </g>
        </g>
        <g id="그룹_8170" data-name="그룹 8170" transform="translate(0.361 0)">
          <g id="그룹_8169" data-name="그룹 8169" clip-path="url(#clip-path-5)">
            <rect id="사각형_1929" data-name="사각형 1929" width="16.287" height="16.287" transform="translate(-5.013 5.013) rotate(-45)" fill="url(#linear-gradient-4)"/>
          </g>
        </g>
        <g id="그룹_8184" data-name="그룹 8184" transform="translate(0 0)">
          <g id="그룹_8183" data-name="그룹 8183" clip-path="url(#clip-path)">
            <g id="그룹_8173" data-name="그룹 8173" transform="translate(0.361 13.246)" opacity="0.2" style="mix-blend-mode: normal;isolation: isolate">
              <g id="그룹_8172" data-name="그룹 8172">
                <g id="그룹_8171" data-name="그룹 8171" clip-path="url(#clip-path-7)">
                  <path id="패스_9331" data-name="패스 9331" d="M15.057,77.908,3.742,84.337a1.3,1.3,0,0,1-1.562.008l-.058.058.058.056h0a1.3,1.3,0,0,0,1.562-.008L15.13,77.98Z" transform="translate(-2.122 -77.908)" fill="#000001"/>
                </g>
              </g>
            </g>
            <g id="그룹_8176" data-name="그룹 8176" transform="translate(0 18.532)" opacity="0.12" style="mix-blend-mode: normal;isolation: isolate">
              <g id="그룹_8175" data-name="그룹 8175">
                <g id="그룹_8174" data-name="그룹 8174" clip-path="url(#clip-path-8)">
                  <path id="패스_9332" data-name="패스 9332" d="M.361,110.1A1.562,1.562,0,0,1,0,109v.114a1.562,1.562,0,0,0,.361,1.1l.058-.058Z" transform="translate(0 -109.002)" fill="#000001"/>
                </g>
              </g>
            </g>
            <g id="그룹_8179" data-name="그룹 8179" transform="translate(13.296 10.026)" opacity="0.12" style="mix-blend-mode: normal;isolation: isolate">
              <g id="그룹_8178" data-name="그룹 8178">
                <g id="그룹_8177" data-name="그룹 8177" clip-path="url(#clip-path-9)">
                  <path id="패스_9333" data-name="패스 9333" d="M82.092,59.981,78.205,62.19l.073.072L82.092,60.1a1.368,1.368,0,0,0,.817-1.125,1.452,1.452,0,0,1-.817,1.011" transform="translate(-78.205 -58.97)" fill="#000001"/>
                </g>
              </g>
            </g>
            <g id="그룹_8182" data-name="그룹 8182" opacity="0.25" style="mix-blend-mode: normal;isolation: isolate">
              <g id="그룹_8181" data-name="그룹 8181">
                <g id="그룹_8180" data-name="그룹 8180" clip-path="url(#clip-path-10)">
                  <path id="패스_9334" data-name="패스 9334" d="M1.981.377l15.2,8.637A1.451,1.451,0,0,1,18,10.026,1.368,1.368,0,0,0,17.183,8.9L1.981.263C.891-.356,0,.158,0,1.406V1.52C0,.272.891-.242,1.981.377" transform="translate(0 0)" fill="#fff"/>
                </g>
              </g>
            </g>
          </g>
        </g>
      </g>
    </g>
  </g>
</svg>
