<svg xmlns="http://www.w3.org/2000/svg" width="44" height="44" viewBox="0 0 44 44">
  <g id="main11" transform="translate(1948 -2544)">
    <g id="그룹_7718" data-name="그룹 7718" transform="translate(-1937.917 2549.5)">
      <path id="패스_9274" data-name="패스 9274" d="M107.84,292.992l1.206-6.247a2.612,2.612,0,0,0-2.07-3.061,2.567,2.567,0,0,0-.5-.048h0a2.612,2.612,0,0,0-2.568,2.119l-1.128,5.805h-1.007a5.79,5.79,0,0,0-5.7,4.8l-.846,4.886" transform="translate(-91.57 -272.709)" fill="none" stroke="#2f2f2f" stroke-linecap="round" stroke-linejoin="round" stroke-width="1.5"/>
      <line id="선_34" data-name="선 34" x2="6.693" transform="translate(4.891 30.59)" fill="none" stroke="#2f2f2f" stroke-linecap="round" stroke-linejoin="round" stroke-width="1.5"/>
      <circle id="타원_312" data-name="타원 312" cx="2.407" cy="2.407" r="2.407" transform="translate(0 28.186)" fill="none" stroke="#2f2f2f" stroke-linecap="round" stroke-linejoin="round" stroke-width="1.5"/>
      <path id="패스_9275" data-name="패스 9275" d="M109.048,293.936a6.314,6.314,0,1,1-6.314,6.314A6.314,6.314,0,0,1,109.048,293.936Z" transform="translate(-92.196 -273.567)" fill="none" stroke="#2f2f2f" stroke-linecap="round" stroke-linejoin="round" stroke-width="1.5"/>
      <path id="패스_9276" data-name="패스 9276" d="M109.417,298.367a2.253,2.253,0,1,1-2.252,2.252,2.252,2.252,0,0,1,2.252-2.252" transform="translate(-92.565 -273.936)" fill="#4a74fc"/>
      <path id="패스_9277" data-name="패스 9277" d="M106.145,274.344h0a2.743,2.743,0,0,1,3.074,2.365l.2,1.535a2.742,2.742,0,1,1-5.439.709l-.2-1.534A2.742,2.742,0,0,1,106.145,274.344Z" transform="translate(-92.281 -271.932)" fill="none" stroke="#2f2f2f" stroke-linecap="round" stroke-linejoin="round" stroke-width="1.5"/>
      <path id="패스_9278" data-name="패스 9278" d="M101.775,274.328a2.211,2.211,0,0,1,2.086-2.322,2.07,2.07,0,0,1,1.53.642,2.09,2.09,0,0,1,1.671-.933,2.177,2.177,0,0,1,2.15,1.939,2.281,2.281,0,0,1-.046,4.541,2.183,2.183,0,0,1-2.15-1.939,1.912,1.912,0,0,0-2.7-.134,1.933,1.933,0,0,0-.358.437,2.209,2.209,0,0,1-2.182-2.231" transform="translate(-92.116 -271.715)" fill="#b5b5b6"/>
      <path id="패스_9279" data-name="패스 9279" d="M101.775,274.328a2.211,2.211,0,0,1,2.086-2.322,2.07,2.07,0,0,1,1.53.642,2.09,2.09,0,0,1,1.671-.933,2.177,2.177,0,0,1,2.15,1.939,2.281,2.281,0,0,1-.046,4.541,2.183,2.183,0,0,1-2.15-1.939,1.912,1.912,0,0,0-2.7-.134,1.933,1.933,0,0,0-.358.437A2.209,2.209,0,0,1,101.775,274.328Z" transform="translate(-92.116 -271.715)" fill="none" stroke="#2f2f2f" stroke-linecap="round" stroke-linejoin="round" stroke-width="1.5"/>
      <line id="선_35" data-name="선 35" x2="5.313" transform="translate(17.81 15.48)" fill="none" stroke="#2f2f2f" stroke-linecap="round" stroke-linejoin="round" stroke-width="1.5"/>
    </g>
    <rect id="사각형_1814" data-name="사각형 1814" width="44" height="44" transform="translate(-1948 2544)" fill="none"/>
  </g>
</svg>
