<svg xmlns="http://www.w3.org/2000/svg" width="44" height="44" viewBox="0 0 44 44">
  <g id="main14" transform="translate(1948 -2630)">
    <g id="그룹_7720" data-name="그룹 7720" transform="translate(-1937.917 2636.417)">
      <path id="패스_9268" data-name="패스 9268" d="M95,377.619h-2.87l2.243-5.1a10.978,10.978,0,1,1,18.079,5.422v11.528H99.929v-4.937H96.884A1.889,1.889,0,0,1,95,382.646Z" transform="translate(-92.126 -358.88)" fill="none" stroke="#2f2f2f" stroke-linecap="round" stroke-linejoin="round" stroke-width="1.5"/>
      <path id="패스_9269" data-name="패스 9269" d="M112.752,364.714v4.363h-1.91a1.041,1.041,0,1,0-1.99,0h-.946a.962.962,0,0,1-.961-.961h0v-.958a1.011,1.011,0,0,0,.608.017,1.04,1.04,0,0,0-.546-2.007l-.061.019v-1.92h4.362a1.45,1.45,0,0,1,1.445,1.447" transform="translate(-93.361 -359.246)" fill="#ffe600" stroke="#2f2f2f" stroke-linecap="round" stroke-linejoin="round" stroke-width="1"/>
      <path id="패스_9271" data-name="패스 9271" d="M99.073,371.955H97.432v-4.362a1.449,1.449,0,0,1,1.447-1.448h4.363v1.919a1.038,1.038,0,0,1,1.349,1.2h0a1.044,1.044,0,0,1-.74.783,1.018,1.018,0,0,1-.608-.016v1.919H101.7" transform="translate(-92.568 -359.485)" fill="none" stroke="#2f2f2f" stroke-linecap="round" stroke-linejoin="round" stroke-width="1"/>
      <path id="패스_9272" data-name="패스 9272" d="M103.242,374.057v-1.69h-1.91a1.061,1.061,0,0,0,.009-.581,1.041,1.041,0,0,0-2,.581h-1.91v4.362a1.448,1.448,0,0,0,1.447,1.449h4.363v-1.926" transform="translate(-92.568 -359.895)" fill="none" stroke="#2f2f2f" stroke-linecap="round" stroke-linejoin="round" stroke-width="1"/>
      <path id="패스_9273" data-name="패스 9273" d="M107.527,372.362h.007a1.04,1.04,0,0,0,.028-.192c0-.017.006-.033.007-.05s.009-.042.009-.063h0a.906.906,0,0,0-.016-.1c0-.022,0-.044,0-.065s-.012-.055-.019-.083,0-.05-.011-.075a1.041,1.041,0,0,0-1.306-.678,1.1,1.1,0,0,0-.686,1.306h-1.911v1.974a1.04,1.04,0,0,0-1.466,1.162,1.011,1.011,0,0,0,.081.223,1.041,1.041,0,0,0,1.388.486v1.968H108a1.448,1.448,0,0,0,1.447-1.448v-4.363Z" transform="translate(-92.96 -359.891)" fill="none" stroke="#2f2f2f" stroke-linecap="round" stroke-linejoin="round" stroke-width="1"/>
    </g>
    <rect id="사각형_1816" data-name="사각형 1816" width="44" height="44" transform="translate(-1948 2630)" fill="none"/>
  </g>
</svg>
