<?xml version="1.0" encoding="utf-8"?>
<!-- Generator: Adobe Illustrator 26.2.1, SVG Export Plug-In . SVG Version: 6.00 Build 0)  -->
<svg version="1.1" id="Layer_1" xmlns="http://www.w3.org/2000/svg" xmlns:xlink="http://www.w3.org/1999/xlink" x="0px" y="0px"
	 viewBox="0 0 44 44" style="enable-background:new 0 0 44 44;" xml:space="preserve">
<style type="text/css">
	.st0{fill:#CADEFF;stroke:#6E90FD;stroke-width:1.5;stroke-miterlimit:10;}
	.st1{fill:none;stroke:#2F2F2F;stroke-width:1.5;stroke-linecap:round;stroke-linejoin:round;}
	.st2{fill:none;}
</style>
<g id="main6" transform="translate(1861 -2358)">
	<g id="그룹_7713" transform="translate(-1852.75 2366.25)">
		<path id="패스_9264" class="st0" d="M22.1,2.6C19.8,0.9,16.9,0,14,0h0v14.1l0,0l11.5,8C29.9,15.8,28.4,7,22.1,2.6"/>
		<line id="선_29" class="st1" x1="28" y1="14" x2="25" y2="14"/>
		<line id="선_30" class="st1" x1="3.1" y1="14" x2="0.2" y2="14"/>
		<line id="선_31" class="st1" x1="14" y1="28" x2="14" y2="25.1"/>
		<line id="선_32" class="st1" x1="14" y1="3.6" x2="14" y2="0.6"/>
		<path id="패스_9265" class="st1" d="M14,0c7.7,0,14,6.3,14,14s-6.3,14-14,14c-7.7,0-14-6.3-14-14l0,0C0,6.3,6.3,0,14,0z"/>
	</g>
	<rect id="사각형_1809" x="-1861" y="2358" class="st2" width="44" height="44"/>
</g>
</svg>
