<?xml version="1.0" encoding="utf-8"?>
<!-- Generator: Adobe Illustrator 26.0.1, SVG Export Plug-In . SVG Version: 6.00 Build 0)  -->
<svg version="1.1" id="Layer_1" xmlns="http://www.w3.org/2000/svg" xmlns:xlink="http://www.w3.org/1999/xlink" x="0px" y="0px"
	 viewBox="0 0 100 100" style="enable-background:new 0 0 100 100;" xml:space="preserve">
<style type="text/css">
	.st0{fill:#A1A1A9;}
	.st1{fill:#FFFFFF;}
</style>
<g id="XMLID_35_">
	<path id="XMLID_38_" class="st0" d="M63,27.9H37c-5,0-9.1,4.1-9.1,9.1V63c0,5,4.1,9.1,9.1,9.1H63c5,0,9.1-4.1,9.1-9.1V37
		C72.1,32,68,27.9,63,27.9z"/>
	<path id="XMLID_41_" class="st1" d="M50,37.6c-6.9,0-12.5,5.6-12.5,12.5C37.5,57,43,62.6,50,62.6c6.9,0,12.5-5.6,12.5-12.5
		C62.5,43.3,56.9,37.6,50,37.6z M50,58.2c-4.5,0-8.1-3.6-8.1-8.1S45.5,42,50,42s8.1,3.6,8.1,8.1S54.5,58.2,50,58.2z"/>
	<circle id="XMLID_42_" class="st1" cx="63.8" cy="35.9" r="3.1"/>
</g>
</svg>
