<svg xmlns="http://www.w3.org/2000/svg" width="40" height="40" viewBox="0 0 40 40">
    <defs>
        <clipPath id="wllrtordga">
            <path data-name="사각형 2652" style="fill:none" d="M0 0h40v40H0z"/>
        </clipPath>
    </defs>
    <g data-name="그룹 10583" style="clip-path:url(#wllrtordga)">
        <path data-name="패스 11694" d="M9.5 38.424H7.027a1.042 1.042 0 1 1 0-2.083H9.5a1.042 1.042 0 1 1 0 2.083" transform="translate(-.998 -6.057)" style="fill:#474747"/>
        <path data-name="패스 11695" d="M15.894 24.33a1.042 1.042 0 0 1-1.042-1.042v-5.6a1.042 1.042 0 0 1 1.042-1.042h12.057a1.042 1.042 0 0 1 0 2.083H16.935v4.555a1.042 1.042 0 0 1-1.042 1.042" transform="translate(-2.475 -2.775)" style="fill:#adadb2"/>
        <path data-name="패스 11696" d="M12.942 34.361A1.042 1.042 0 0 1 11.9 33.32v-5.555a1.042 1.042 0 1 1 2.083 0v5.555a1.042 1.042 0 0 1-1.042 1.042" transform="translate(-1.983 -4.454)" style="fill:#adadb2"/>
        <path data-name="패스 11697" d="M15.118 37.1a2.46 2.46 0 1 1-2.46-2.46 2.46 2.46 0 0 1 2.46 2.46" transform="translate(-1.7 -5.773)" style="fill:#5e5e5e"/>
        <path data-name="패스 11698" d="M39.18 9.212h-6.886a1.042 1.042 0 1 1 0-2.083h6.886a1.042 1.042 0 0 1 0 2.083" transform="translate(-5.209 -1.188)" style="fill:#474747"/>
        <path data-name="패스 11699" d="M29.616 21.188V9.3a2.167 2.167 0 0 1 4.333 0v13.287" transform="translate(-4.936 -1.188)" style="fill:#7e7e7e"/>
        <path data-name="패스 11700" d="M21 28.539h-7.941a2.166 2.166 0 1 1 0-4.332h11.4" transform="translate(-1.815 -4.035)" style="fill:#7e7e7e"/>
        <path data-name="패스 11701" d="M36.34 30.118a7.446 7.446 0 1 1-7.446-7.446 7.446 7.446 0 0 1 7.446 7.446" transform="translate(-3.575 -3.779)" style="fill:#474747"/>
        <path data-name="패스 11702" d="M32.328 31.121a2.43 2.43 0 1 1-2.43-2.43 2.43 2.43 0 0 1 2.43 2.43" transform="translate(-4.578 -4.782)" style="fill:#7e7e7e"/>
    </g>
</svg>
