<?xml version="1.0" encoding="utf-8"?>
<!-- Generator: Adobe Illustrator 26.5.0, SVG Export Plug-In . SVG Version: 6.00 Build 0)  -->
<svg version="1.1" id="Layer_1" xmlns="http://www.w3.org/2000/svg" xmlns:xlink="http://www.w3.org/1999/xlink" x="0px" y="0px"
	 viewBox="0 0 24 24" style="enable-background:new 0 0 24 24;" xml:space="preserve">
<style type="text/css">
	.st0{fill:none;}
	.st1{fill:none;stroke:#919199;stroke-width:1.25;stroke-linecap:round;stroke-linejoin:round;}
	.st2{fill:#FFFFFF;stroke:#919199;stroke-width:1.25;stroke-linecap:round;stroke-linejoin:round;}
</style>
<g id="my_icon4" transform="translate(-842.805 -516.226)">
	<path id="사각형_1583" class="st0" d="M842.8,516.2h24v24h-24V516.2z"/>
	<g id="그룹_7608">
		<path id="패스_8920" class="st1" d="M847.7,524c0-2.2,1.8-3.9,3.9-3.9l0,0h6.4c2.2,0,3.9,1.8,3.9,3.9l0,0v8.4
			c0,2.2-1.8,3.9-3.9,3.9l0,0h-2.9"/>
		<path id="사각형_1584" class="st1" d="M845.9,524.3h1.7v6.1l0,0h-1.7c-0.8,0-1.4-0.6-1.4-1.4l0,0v-3.3
			C844.6,524.9,845.2,524.3,845.9,524.3L845.9,524.3z"/>
		<path id="사각형_1585" class="st1" d="M863.7,530.3H862v-6.1l0,0h1.7c0.8,0,1.4,0.6,1.4,1.4l0,0v3.3
			C865.1,529.7,864.4,530.3,863.7,530.3L863.7,530.3z"/>
		<path id="선_17" class="st2" d="M851.8,526.2v1"/>
		<path id="패스_8921" class="st1" d="M853.1,529.8L853.1,529.8c1,0.7,2.3,0.7,3.3,0l0,0"/>
		<path id="선_18" class="st2" d="M857.5,526.2v1"/>
	</g>
</g>
</svg>
