<svg xmlns="http://www.w3.org/2000/svg" width="142" height="60" viewBox="0 0 142 60">
  <defs>
    <style>
      .cls-1 {
        fill: #ebebeb;
      }

      .cls-2 {
        fill: #6e90fd;
      }

      .cls-3, .cls-5, .cls-6 {
        fill: none;
      }

      .cls-3 {
        stroke: #6e90fd;
      }

      .cls-3, .cls-5 {
        stroke-linecap: round;
        stroke-linejoin: round;
        stroke-width: 2.272px;
      }

      .cls-4 {
        fill: #fff;
      }

      .cls-5 {
        stroke: #fff;
      }
    </style>
  </defs>
  <g id="counsel1_step7" transform="translate(-198 -76)">
    <g id="그룹_10816" data-name="그룹 10816" transform="translate(0.163 2)">
      <g id="그룹_10815" data-name="그룹 10815" transform="translate(303.06 94.136)">
        <path id="패스_11995" data-name="패스 11995" class="cls-1" d="M25.778,37.511c0,2-5.517,3.625-12.322,3.625S1.136,39.513,1.136,37.511s5.516-3.625,12.321-3.625,12.322,1.623,12.322,3.625" transform="translate(-1.136 -3.136)"/>
        <path id="패스_11996" data-name="패스 11996" class="cls-2" d="M13.456,33.06S1.136,25.014,1.136,13.387a12.321,12.321,0,0,1,24.642,0c0,11.627-12.322,19.673-12.322,19.673" transform="translate(-1.136 -1.136)"/>
        <path id="패스_11997" data-name="패스 11997" class="cls-3" d="M13.456,33.06S1.136,25.014,1.136,13.387a12.321,12.321,0,0,1,24.642,0C25.778,25.014,13.456,33.06,13.456,33.06Z" transform="translate(-1.136 -1.136)"/>
        <path id="패스_11998" data-name="패스 11998" class="cls-4" d="M14.537,11.035a3.784,3.784,0,1,1-3.784,3.784,3.784,3.784,0,0,1,3.784-3.784" transform="translate(-2.217 -2.052)"/>
        <circle id="타원_365" data-name="타원 365" class="cls-5" cx="3.784" cy="3.784" r="3.784" transform="translate(8.536 8.983)"/>
      </g>
      <rect id="사각형_2734" data-name="사각형 2734" class="cls-6" width="28.837" height="40" transform="translate(301 92)"/>
    </g>
    <rect id="사각형_2833" data-name="사각형 2833" class="cls-6" width="142" height="60" transform="translate(198 76)"/>
  </g>
</svg>
