<svg xmlns="http://www.w3.org/2000/svg" width="34" height="34" viewBox="0 0 34 34">
    <path data-name="패스 12586" d="M27.8 7.048v8.118a3.264 3.264 0 0 1 1.641 2.516 9.417 9.417 0 0 1-4.352 7.692l1 3.289a1.633 1.633 0 0 1-1.564 2.108H11.433a1.688 1.688 0 0 1-1.615-2.108l1-3.289a9.433 9.433 0 0 1-4.3-7.692 3.214 3.214 0 0 1 1.641-2.525V7.048h-.814a.822.822 0 0 1-.816-.816v-.816a.822.822 0 0 1 .816-.816h21.284a.822.822 0 0 1 .816.816v.816a.816.816 0 0 1-.816.816h-.816z" transform="translate(-.978 -.69)" style="fill:#b7c7fe"/>
    <path data-name="패스 12587" d="M26.741 19.711c0-.9-3.663-1.641-8.185-1.641s-8.186.731-8.186 1.641 3.664 1.641 8.186 1.641 8.186-.731 8.186-1.641z" transform="translate(-1.556 -2.711)" style="fill:#4a74fc"/>
    <path data-name="패스 12588" d="M12.708 8.44h2.457a.408.408 0 0 1 .408.408v.816a.408.408 0 0 1-.408.408h-2.457a.408.408 0 0 1-.408-.408v-.816a.408.408 0 0 1 .408-.408z" transform="translate(-1.845 -1.266)" style="fill:#edf1ff"/>
</svg>
