<svg xmlns="http://www.w3.org/2000/svg" width="34" height="34" viewBox="0 0 34 34">
    <path data-name="사각형 3048" style="fill:#fff;opacity:.004" d="M0 0h34v34H0z"/>
    <path data-name="패스 12595" d="M.725 28.991a.726.726 0 0 1-.685-.963 7.722 7.722 0 0 1 6.036-4.786.726.726 0 0 1 .224 1.434A6.327 6.327 0 0 0 1.41 28.5a.724.724 0 0 1-.685.487" transform="translate(3.502 -3.173)" style="fill:#ff9b5d"/>
    <path data-name="패스 12596" d="M37.74 28.991a.725.725 0 0 1-.684-.484 6.275 6.275 0 0 0-4.892-3.83.726.726 0 0 1 .225-1.434 7.724 7.724 0 0 1 6.036 4.786.726.726 0 0 1-.685.963" transform="translate(-8.069 -3.173)" style="fill:#ff9b5d"/>
    <path data-name="패스 12597" d="M19.019 12.129C16.766 12.129 15 9.465 15 6.064S16.766 0 19.019 0s4.018 2.664 4.018 6.064-1.765 6.065-4.018 6.065m0-10.679c-1.392 0-2.568 2.113-2.568 4.614s1.176 4.614 2.568 4.614 2.568-2.113 2.568-4.614-1.176-4.614-2.568-4.614" transform="translate(-2.071 3.212)" style="fill:#ff9b5d"/>
    <path data-name="패스 12594" d="M20.631 8.362h-7.038a1.3 1.3 0 0 0-1.284 1.184 11.229 11.229 0 0 1-3.615 7.585 1.848 1.848 0 0 0-.635 1.4v9.936a1.879 1.879 0 0 0 1.879 1.879h14.348a1.879 1.879 0 0 0 1.879-1.879v-9.934a1.848 1.848 0 0 0-.635-1.4 11.233 11.233 0 0 1-3.615-7.585 1.294 1.294 0 0 0-1.284-1.184" transform="translate(-.163 .914)" style="fill:#ffd35d"/>
    <path data-name="패스 12598" d="M19.676 29.116h-1.862A3.812 3.812 0 0 1 14 25.3v-2.451a1.357 1.357 0 0 1 1.357-1.358h6.773a1.357 1.357 0 0 1 1.357 1.358V25.3a3.813 3.813 0 0 1-3.812 3.812" transform="translate(-1.796 -2.694)" style="fill:#ff8a57"/>
</svg>
