<svg xmlns="http://www.w3.org/2000/svg" width="44" height="44" viewBox="0 0 44 44">
  <g id="main10" transform="translate(2037 -2544)">
    <g id="그룹_7717" data-name="그룹 7717" transform="translate(-2031.5 2550.417)">
      <path id="패스_9231" data-name="패스 9231" d="M29.447,280.673A2.548,2.548,0,1,1,29,285.554" transform="translate(-3.104 -272.942)" fill="#5b5b68"/>
      <path id="패스_9232" data-name="패스 9232" d="M29.447,280.673A2.548,2.548,0,1,1,29,285.554" transform="translate(-3.104 -272.942)" fill="none" stroke="#2f2f2f" stroke-linecap="round" stroke-linejoin="round" stroke-width="1.5"/>
      <path id="패스_9233" data-name="패스 9233" d="M12.49,296.9a12.5,12.5,0,0,1,8.582-3.4h.783A12.543,12.543,0,0,1,34.4,306.047H8.534" transform="translate(-1.399 -274.015)" fill="none" stroke="#2f2f2f" stroke-linecap="round" stroke-linejoin="round" stroke-width="1.5"/>
      <path id="패스_9234" data-name="패스 9234" d="M22.025,273.4h0a5.789,5.789,0,0,1,5.791,5.787v4.328a5.79,5.79,0,0,1-5.79,5.792h0a5.79,5.79,0,0,1-5.791-5.791v-4.324a5.79,5.79,0,0,1,5.787-5.792h0Z" transform="translate(-2.041 -272.339)" fill="none" stroke="#2f2f2f" stroke-linecap="round" stroke-linejoin="round" stroke-width="1.5"/>
      <path id="패스_9235" data-name="패스 9235" d="M22.9,272.248h-.3v0H20.949a6,6,0,0,0-6,6v1.647a7.645,7.645,0,0,0,6.972-4.524,7.642,7.642,0,0,0,6.975,4.523v-1.648a6,6,0,0,0-6-6" transform="translate(-1.934 -272.243)" fill="#5b5b68"/>
      <path id="패스_9236" data-name="패스 9236" d="M22.9,272.248h-.3v0H20.949a6,6,0,0,0-6,6v1.647a7.645,7.645,0,0,0,6.972-4.524,7.642,7.642,0,0,0,6.975,4.523v-1.648A6,6,0,0,0,22.9,272.248Z" transform="translate(-1.934 -272.243)" fill="none" stroke="#2f2f2f" stroke-linecap="round" stroke-linejoin="round" stroke-width="1.5"/>
      <path id="패스_9237" data-name="패스 9237" d="M14.953,280.588h0Z" transform="translate(-1.934 -272.938)" fill="#5b5b68"/>
      <path id="패스_9238" data-name="패스 9238" d="M14.953,280.588h0Z" transform="translate(-1.934 -272.938)" fill="none" stroke="#2f2f2f" stroke-linecap="round" stroke-linejoin="round" stroke-width="1.5"/>
      <line id="선_25" data-name="선 25" x2="4.339" transform="translate(23.077 26.778)" fill="none" stroke="#2f2f2f" stroke-linecap="round" stroke-linejoin="round" stroke-width="1.5"/>
      <path id="패스_9239" data-name="패스 9239" d="M9.2,292.5h2.473v13.466H.75V292.5h2.5" transform="translate(-0.75 -273.931)" fill="none" stroke="#2f2f2f" stroke-linecap="round" stroke-linejoin="round" stroke-width="1.5"/>
      <path id="패스_9240" data-name="패스 9240" d="M7.548,291.5c0-.021.006-.041.006-.063a1.1,1.1,0,0,0-2.206,0,.246.246,0,0,0,.006.063H3.64v1.537H9.262v-1.543Z" transform="translate(-0.991 -273.751)" fill="none" stroke="#2f2f2f" stroke-linecap="round" stroke-linejoin="round" stroke-width="1.3"/>
      <path id="패스_9241" data-name="패스 9241" d="M9.137,298.9H7.354v-1.787H5.571V298.9H3.789v1.782H5.572v1.783H7.355V300.68H9.138Z" transform="translate(-1.004 -274.316)" fill="#4a74fc"/>
    </g>
    <rect id="사각형_1813" data-name="사각형 1813" width="44" height="44" transform="translate(-2037 2544)" fill="none"/>
  </g>
</svg>
