<svg xmlns="http://www.w3.org/2000/svg" width="44" height="44" viewBox="0 0 44 44">
  <g id="main3" transform="translate(1861 -2272)">
    <g id="그룹_7710" data-name="그룹 7710" transform="translate(-1853.667 2279.333)">
      <path id="패스_9300" data-name="패스 9300" d="M205.305,33.339H181.633V12.119l11.835-7.4,11.836,7.4Z" transform="translate(-178.549 -4.723)" fill="none" stroke="#2f2f2f" stroke-linecap="round" stroke-linejoin="round" stroke-width="1.5"/>
      <path id="패스_9301" data-name="패스 9301" d="M178.269,14.007l14.92-9.283L208.1,14.007" transform="translate(-178.269 -4.723)" fill="none" stroke="#2f2f2f" stroke-linecap="round" stroke-linejoin="round" stroke-width="1.5"/>
      <path id="패스_9302" data-name="패스 9302" d="M192.888,20.891h-1.953a.41.41,0,0,1-.41-.41V18.528a.41.41,0,0,1,.41-.41h1.953a.41.41,0,0,1,.41.41v1.953a.41.41,0,0,1-.41.41" transform="translate(-179.29 -5.84)" fill="#4a74fc"/>
      <path id="패스_9303" data-name="패스 9303" d="M197.9,20.891h-1.953a.41.41,0,0,1-.41-.41V18.528a.41.41,0,0,1,.41-.41H197.9a.41.41,0,0,1,.41.41v1.953a.41.41,0,0,1-.41.41" transform="translate(-179.708 -5.84)" fill="#4a74fc"/>
      <path id="패스_9304" data-name="패스 9304" d="M192.888,25.781h-1.953a.41.41,0,0,1-.41-.41V23.418a.41.41,0,0,1,.41-.41h1.953a.41.41,0,0,1,.41.41v1.953a.41.41,0,0,1-.41.41" transform="translate(-179.29 -6.247)" fill="#4a74fc"/>
      <path id="패스_9305" data-name="패스 9305" d="M197.9,25.781h-1.953a.41.41,0,0,1-.41-.41V23.418a.41.41,0,0,1,.41-.41H197.9a.41.41,0,0,1,.41.41v1.953a.41.41,0,0,1-.41.41" transform="translate(-179.708 -6.247)" fill="#4a74fc"/>
      <path id="패스_9306" data-name="패스 9306" d="M205.309,33.506H181.637V12.286l11.835-7.4,11.836,7.4Z" transform="translate(-178.549 -4.737)" fill="none" stroke="#2f2f2f" stroke-linecap="round" stroke-linejoin="round" stroke-width="1.5"/>
      <path id="패스_9307" data-name="패스 9307" d="M178.272,14.174l14.92-9.283,14.914,9.283" transform="translate(-178.269 -4.737)" fill="none" stroke="#2f2f2f" stroke-linecap="round" stroke-linejoin="round" stroke-width="1.5"/>
    </g>
    <rect id="사각형_1806" data-name="사각형 1806" width="44" height="44" transform="translate(-1861 2272)" fill="none"/>
  </g>
</svg>
