<svg xmlns="http://www.w3.org/2000/svg" width="44" height="44" viewBox="0 0 44 44">
  <g id="main13" transform="translate(2037 -2630)">
    <g id="그룹_7721" data-name="그룹 7721" transform="translate(-2026.917 2636.417)">
      <path id="패스_9220" data-name="패스 9220" d="M24.069,365.507a3.539,3.539,0,0,0-2.127-.062,5.047,5.047,0,0,0-1.126.625,9.33,9.33,0,0,0-.813.813,9.33,9.33,0,0,0-.813-.813,5.047,5.047,0,0,0-1.126-.625,3.539,3.539,0,0,0-2.127.062,3.238,3.238,0,0,0-2.064,3,5.609,5.609,0,0,0,2.19,4.19,34.283,34.283,0,0,0,4,3.065,40.777,40.777,0,0,0,4-3.065,5.733,5.733,0,0,0,2.189-4.19,3.445,3.445,0,0,0-2.189-3" transform="translate(-7.36 -359.416)" fill="#4a74fc" stroke="#2f2f2f" stroke-linecap="round" stroke-linejoin="round" stroke-width="1"/>
      <path id="패스_9221" data-name="패스 9221" d="M24.069,365.507a3.539,3.539,0,0,0-2.127-.062,5.047,5.047,0,0,0-1.126.625,9.33,9.33,0,0,0-.813.813,9.33,9.33,0,0,0-.813-.813,5.047,5.047,0,0,0-1.126-.625,3.539,3.539,0,0,0-2.127.062,3.238,3.238,0,0,0-2.064,3,5.609,5.609,0,0,0,2.19,4.19,34.283,34.283,0,0,0,4,3.065,40.777,40.777,0,0,0,4-3.065,5.733,5.733,0,0,0,2.189-4.19A3.445,3.445,0,0,0,24.069,365.507Z" transform="translate(-7.36 -359.416)" fill="none"/>
      <path id="패스_9222" data-name="패스 9222" d="M9.637,377.618H6.768l2.241-5.1a10.977,10.977,0,1,1,18.079,5.421v11.53H14.571v-4.936H11.526a1.887,1.887,0,0,1-1.888-1.887h0Z" transform="translate(-6.768 -358.88)" fill="none" stroke="#2f2f2f" stroke-linecap="round" stroke-linejoin="round" stroke-width="1.5"/>
      <path id="패스_9223" data-name="패스 9223" d="M14.3,369.971h1.208l.5-.924.829,1.491.768-1.17.844,2.237.613-1.811h3.533" transform="translate(-5.7 -359.727)" fill="none" stroke="#fff" stroke-linecap="round" stroke-linejoin="round" stroke-width="0.75"/>
    </g>
    <rect id="사각형_1817" data-name="사각형 1817" width="44" height="44" transform="translate(-2037 2630)" fill="none"/>
  </g>
</svg>
