<svg xmlns="http://www.w3.org/2000/svg" width="44" height="44" viewBox="0 0 44 44">
  <g id="main2" transform="translate(1948 -2272)">
    <g id="그룹_7709" data-name="그룹 7709" transform="translate(-1946.167 2279.333)">
      <path id="패스_9292" data-name="패스 9292" d="M100.544,20.9H98.6a.417.417,0,0,1-.417-.416V18.543a.417.417,0,0,1,.417-.416h1.94a.416.416,0,0,1,.416.416v1.941a.416.416,0,0,1-.416.416" transform="translate(-86.956 -6.001)" fill="#4a74fc"/>
      <path id="패스_9293" data-name="패스 9293" d="M105.56,20.9h-1.94a.417.417,0,0,1-.417-.416V18.543a.417.417,0,0,1,.417-.416h1.94a.416.416,0,0,1,.416.416v1.941a.416.416,0,0,1-.416.416" transform="translate(-87.374 -6.001)" fill="#4a74fc"/>
      <path id="패스_9294" data-name="패스 9294" d="M100.544,25.79H98.6a.417.417,0,0,1-.417-.416V23.433a.417.417,0,0,1,.417-.416h1.94a.416.416,0,0,1,.416.416v1.941a.416.416,0,0,1-.416.416" transform="translate(-86.956 -6.409)" fill="#4a74fc"/>
      <path id="패스_9295" data-name="패스 9295" d="M105.56,25.79h-1.94a.417.417,0,0,1-.417-.416V23.433a.417.417,0,0,1,.417-.416h1.94a.416.416,0,0,1,.416.416v1.941a.416.416,0,0,1-.416.416" transform="translate(-87.374 -6.409)" fill="#4a74fc"/>
      <path id="패스_9296" data-name="패스 9296" d="M126.491,34.987H115.133V26.113l5.679-3.548,5.679,3.548Z" transform="translate(-88.368 -6.371)" fill="none" stroke="#2f2f2f" stroke-linecap="round" stroke-linejoin="round" stroke-width="1.5"/>
      <path id="패스_9297" data-name="패스 9297" d="M115.133,26.113l5.679-3.548,7.156,4.454" transform="translate(-88.368 -6.371)" fill="none" stroke="#2f2f2f" stroke-linecap="round" stroke-linejoin="round" stroke-width="1.5"/>
      <path id="패스_9298" data-name="패스 9298" d="M112.972,33.515H89.3V12.295l11.835-7.4,11.836,7.4Z" transform="translate(-86.215 -4.899)" fill="none" stroke="#2f2f2f" stroke-linecap="round" stroke-linejoin="round" stroke-width="1.5"/>
      <path id="패스_9299" data-name="패스 9299" d="M85.935,14.183,100.854,4.9l14.914,9.284" transform="translate(-85.935 -4.899)" fill="none" stroke="#2f2f2f" stroke-linecap="round" stroke-linejoin="round" stroke-width="1.5"/>
    </g>
    <rect id="사각형_1805" data-name="사각형 1805" width="44" height="44" transform="translate(-1948 2272)" fill="none"/>
  </g>
</svg>
