<svg xmlns="http://www.w3.org/2000/svg" width="44" height="44" viewBox="0 0 44 44">
  <g id="main9" transform="translate(1861 -2458)">
    <g id="그룹_7714" data-name="그룹 7714" transform="translate(-1855.5 2465.333)">
      <path id="패스_9224" data-name="패스 9224" d="M177.781,201.928V185.876H184.5a2.113,2.113,0,0,1,2.113,2.112v1.555" transform="translate(-176.638 -185.876)" fill="none" stroke="#2f2f2f" stroke-linecap="round" stroke-linejoin="round" stroke-width="1.5"/>
      <line id="선_23" data-name="선 23" y2="3.187" transform="translate(24.542 26.381)" fill="none" stroke="#2f2f2f" stroke-linecap="round" stroke-linejoin="round" stroke-width="1.5"/>
      <line id="선_24" data-name="선 24" y2="3.187" transform="translate(7.616 26.381)" fill="none" stroke="#2f2f2f" stroke-linecap="round" stroke-linejoin="round" stroke-width="1.5"/>
      <path id="패스_9225" data-name="패스 9225" d="M195.671,199.992l-3.184,3.111H176.534l2.685,7.629a4.04,4.04,0,0,0,3.812,2.7h18.915a4.04,4.04,0,0,0,3.812-2.7l3.776-10.742Z" transform="translate(-176.534 -187.052)" fill="none" stroke="#2f2f2f" stroke-linecap="round" stroke-linejoin="round" stroke-width="1.5"/>
      <path id="패스_9226" data-name="패스 9226" d="M184.949,191.914a1.057,1.057,0,1,1-1.057,1.057,1.057,1.057,0,0,1,1.057-1.057" transform="translate(-177.147 -186.379)" fill="#4a74fc"/>
      <path id="패스_9227" data-name="패스 9227" d="M182.5,195.988a1.057,1.057,0,1,1-1.057,1.057,1.057,1.057,0,0,1,1.057-1.057" transform="translate(-176.943 -186.719)" fill="#4a74fc"/>
      <path id="패스_9228" data-name="패스 9228" d="M187.325,195.988a1.057,1.057,0,1,1-1.057,1.057,1.057,1.057,0,0,1,1.057-1.057" transform="translate(-177.345 -186.719)" fill="#4a74fc"/>
      <path id="패스_9229" data-name="패스 9229" d="M192.144,195.988a1.057,1.057,0,1,1-1.057,1.057,1.057,1.057,0,0,1,1.057-1.057" transform="translate(-177.747 -186.719)" fill="#4a74fc"/>
      <path id="패스_9230" data-name="패스 9230" d="M189.693,191.914a1.057,1.057,0,1,1-1.057,1.057,1.057,1.057,0,0,1,1.057-1.057" transform="translate(-177.542 -186.379)" fill="#4a74fc"/>
    </g>
    <rect id="사각형_1812" data-name="사각형 1812" width="44" height="44" transform="translate(-1861 2458)" fill="none"/>
  </g>
</svg>
