<svg xmlns="http://www.w3.org/2000/svg" width="44" height="44" viewBox="0 0 44 44">
  <g id="main8" transform="translate(1948 -2458)">
    <g id="그룹_7715" data-name="그룹 7715" transform="translate(-1938.833 2463.5)">
      <path id="패스_9242" data-name="패스 9242" d="M112.487,201.97h-5.605v-4.66a3.815,3.815,0,0,1,3.813-3.815H117a3.815,3.815,0,0,1,3.815,3.815" transform="translate(-94.754 -184.845)" fill="none" stroke="#2f2f2f" stroke-linecap="round" stroke-linejoin="round" stroke-width="1.5"/>
      <path id="패스_9243" data-name="패스 9243" d="M119.182,203.676v14.917h-8.37V206.371" transform="translate(-95.081 -185.694)" fill="none" stroke="#2f2f2f" stroke-linecap="round" stroke-linejoin="round" stroke-width="1.5"/>
      <line id="선_26" data-name="선 26" y2="8.832" transform="translate(19.914 24.065)" fill="none" stroke="#2f2f2f" stroke-linecap="round" stroke-linejoin="round" stroke-width="1.5"/>
      <rect id="사각형_1796" data-name="사각형 1796" width="4.67" height="3.759" transform="translate(2.101 29.14)" fill="none" stroke="#2f2f2f" stroke-linecap="round" stroke-linejoin="round" stroke-width="1.5"/>
      <path id="패스_9244" data-name="패스 9244" d="M102.431,192.748h0a8.778,8.778,0,0,0-8.78,8.776v12.4h8.78v-8.124" transform="translate(-93.651 -184.783)" fill="none" stroke="#2f2f2f" stroke-linecap="round" stroke-linejoin="round" stroke-width="1.5"/>
      <path id="패스_9245" data-name="패스 9245" d="M108.677,202.178H103.23v-6.266" transform="translate(-94.449 -185.047)" fill="none" stroke="#2f2f2f" stroke-linecap="round" stroke-linejoin="round" stroke-width="1.5"/>
      <path id="패스_9246" data-name="패스 9246" d="M98.243,202.745v1.622a2.269,2.269,0,0,0,2.269,2.269h8.295" transform="translate(-94.034 -185.616)" fill="none" stroke="#2f2f2f" stroke-linecap="round" stroke-linejoin="round" stroke-width="1.5"/>
      <path id="패스_9247" data-name="패스 9247" d="M116.4,197.791s.671,4.406-5.408,4.868c0,0-1.672-.016-1.672,1.472a1.8,1.8,0,0,0,1.672,1.815c1.024.2,10.035.083,10.035-8.287" transform="translate(-94.957 -185.192)" fill="none" stroke="#2f2f2f" stroke-linecap="round" stroke-linejoin="round" stroke-width="1.5"/>
      <line id="선_27" data-name="선 27" y2="4.263" transform="translate(16.038 12.866)" fill="none" stroke="#2f2f2f" stroke-linecap="round" stroke-linejoin="round" stroke-width="1.5"/>
      <path id="패스_9248" data-name="패스 9248" d="M114.109,184.059h0a2.551,2.551,0,0,1,2.551,2.551v1.442a2.552,2.552,0,1,1-5.1,0V186.61A2.552,2.552,0,0,1,114.109,184.059Z" transform="translate(-95.143 -184.059)" fill="none" stroke="#2f2f2f" stroke-linecap="round" stroke-linejoin="round" stroke-width="1.5"/>
      <path id="패스_9249" data-name="패스 9249" d="M104.927,189.435h0a2.551,2.551,0,0,1,2.551,2.551h0v1.441a2.551,2.551,0,0,1-2.549,2.551h0a2.552,2.552,0,0,1-2.552-2.55h0v-1.442A2.553,2.553,0,0,1,104.927,189.435Z" transform="translate(-94.378 -184.507)" fill="none" stroke="#2f2f2f" stroke-linecap="round" stroke-linejoin="round" stroke-width="1.5"/>
      <path id="패스_9250" data-name="패스 9250" d="M107.778,189.424a1.713,1.713,0,0,0-1.838-1.576,1.6,1.6,0,0,0-1.111.647,1.622,1.622,0,0,0-1.379-.552,1.694,1.694,0,0,0-1.459,1.708,1.769,1.769,0,0,0,.49,3.488,1.693,1.693,0,0,0,1.459-1.707,1.6,1.6,0,0,0,1-.623,1.624,1.624,0,0,0,1.378.551,1.714,1.714,0,0,0,1.458-1.933Z" transform="translate(-94.233 -184.374)" fill="#b5b5b6"/>
      <path id="패스_9251" data-name="패스 9251" d="M107.778,189.424a1.713,1.713,0,0,0-1.838-1.576,1.6,1.6,0,0,0-1.111.647,1.622,1.622,0,0,0-1.379-.552,1.694,1.694,0,0,0-1.459,1.708,1.769,1.769,0,0,0,.49,3.488,1.693,1.693,0,0,0,1.459-1.707,1.6,1.6,0,0,0,1-.623,1.624,1.624,0,0,0,1.378.551,1.714,1.714,0,0,0,1.458-1.933Z" transform="translate(-94.233 -184.374)" fill="none" stroke="#2f2f2f" stroke-linecap="round" stroke-linejoin="round" stroke-width="1.5"/>
    </g>
    <rect id="사각형_1811" data-name="사각형 1811" width="44" height="44" transform="translate(-1948 2458)" fill="none"/>
  </g>
</svg>
