<svg xmlns="http://www.w3.org/2000/svg" width="44" height="44" viewBox="0 0 44 44">
  <g id="main12" transform="translate(1861 -2544)">
    <g id="그룹_7719" data-name="그룹 7719" transform="translate(-1855.5 2550.417)">
      <path id="패스_9280" data-name="패스 9280" d="M187.277,292.216h-2.87l2.243-5.1a10.978,10.978,0,1,1,18.079,5.422v11.528H192.21v-4.937h-3.044a1.889,1.889,0,0,1-1.889-1.888Z" transform="translate(-175.166 -273.477)" fill="none" stroke="#2f2f2f" stroke-linecap="round" stroke-linejoin="round" stroke-width="1.5"/>
      <path id="패스_9281" data-name="패스 9281" d="M205.033,279.311v4.362h-1.91a1.041,1.041,0,1,0-1.99,0h-.946a.961.961,0,0,1-.961-.96h0v-.958a1.012,1.012,0,0,0,.608.016,1.04,1.04,0,0,0-.546-2.007l-.061.019v-1.92h4.362a1.45,1.45,0,0,1,1.445,1.447" transform="translate(-176.401 -273.843)" fill="#ffe600" stroke="#2f2f2f" stroke-linecap="round" stroke-linejoin="round" stroke-width="1"/>
      <path id="패스_9283" data-name="패스 9283" d="M191.354,286.552h-1.641v-4.362a1.449,1.449,0,0,1,1.447-1.448h4.363v1.919a1.038,1.038,0,0,1,1.349,1.2h0a1.044,1.044,0,0,1-.74.783,1.018,1.018,0,0,1-.608-.016v1.919h-1.546" transform="translate(-175.608 -274.082)" fill="none" stroke="#2f2f2f" stroke-linecap="round" stroke-linejoin="round" stroke-width="1"/>
      <path id="패스_9284" data-name="패스 9284" d="M195.523,288.653v-1.69h-1.91a1.062,1.062,0,0,0,.009-.581,1.041,1.041,0,0,0-2,.581h-1.91v4.361a1.448,1.448,0,0,0,1.447,1.449h4.363v-1.926" transform="translate(-175.608 -274.492)" fill="none" stroke="#2f2f2f" stroke-linecap="round" stroke-linejoin="round" stroke-width="1"/>
      <path id="패스_9285" data-name="패스 9285" d="M199.808,286.958h.007a1.04,1.04,0,0,0,.028-.192c0-.016.006-.033.007-.049s.009-.042.009-.063h0a.907.907,0,0,0-.016-.1c0-.022,0-.044,0-.065a.847.847,0,0,0-.019-.083c-.005-.025,0-.05-.011-.075a1.041,1.041,0,0,0-1.306-.678,1.1,1.1,0,0,0-.686,1.306h-1.911v1.974a1.04,1.04,0,0,0-1.466,1.162,1.012,1.012,0,0,0,.081.223,1.041,1.041,0,0,0,1.388.486v1.968h4.371a1.448,1.448,0,0,0,1.447-1.448v-4.363Z" transform="translate(-176 -274.488)" fill="none" stroke="#2f2f2f" stroke-linecap="round" stroke-linejoin="round" stroke-width="1"/>
      <path id="패스_9286" data-name="패스 9286" d="M191.253,304.068h-9.125v-4.937h-3.045a1.888,1.888,0,0,1-1.888-1.887V292.22h-2.869l2.242-5.1a10.977,10.977,0,0,1,14.657-12.878" transform="translate(-174.326 -273.478)" fill="none" stroke="#2f2f2f" stroke-linecap="round" stroke-linejoin="round" stroke-width="1.5"/>
    </g>
    <rect id="사각형_1815" data-name="사각형 1815" width="44" height="44" transform="translate(-1861 2544)" fill="none"/>
  </g>
</svg>
