<svg xmlns="http://www.w3.org/2000/svg" width="44" height="44" viewBox="0 0 44 44">
  <g id="main6" transform="translate(2037 -2458)">
    <g id="그룹_7716" data-name="그룹 7716" transform="translate(-2029.667 2466.25)">
      <path id="패스_9252" data-name="패스 9252" d="M30.2,191.833h1.081a2.935,2.935,0,0,1,2.935,2.936v19.249a2.935,2.935,0,0,1-2.935,2.936H7.555a2.935,2.935,0,0,1-2.935-2.936V194.769a2.935,2.935,0,0,1,2.935-2.936H8.677" transform="translate(-4.62 -188.904)" fill="none" stroke="#2f2f2f" stroke-linecap="round" stroke-linejoin="round" stroke-width="1.5"/>
      <line id="선_28" data-name="선 28" x2="15.618" transform="translate(7.046 2.929)" fill="none" stroke="#2f2f2f" stroke-linecap="round" stroke-linejoin="round" stroke-width="1.5"/>
      <path id="패스_9253" data-name="패스 9253" d="M11.824,191.5v1.643a1.216,1.216,0,1,1-2.433,0V189.86a1.217,1.217,0,0,1,1.217-1.217v0a1.216,1.216,0,0,1,1.216,1.216V191.5" transform="translate(-5.018 -188.638)" fill="none" stroke="#2f2f2f" stroke-linecap="round" stroke-linejoin="round" stroke-width="1.3"/>
      <path id="패스_9254" data-name="패스 9254" d="M30.743,188.638h0a1.216,1.216,0,0,1,1.216,1.216v3.286a1.214,1.214,0,0,1-1.212,1.217h0a1.217,1.217,0,0,1-1.217-1.217V189.86a1.218,1.218,0,0,1,1.217-1.217Z" transform="translate(-6.696 -188.638)" fill="none" stroke="#2f2f2f" stroke-linecap="round" stroke-linejoin="round" stroke-width="1.3"/>
      <path id="패스_9255" data-name="패스 9255" d="M12.608,199.616h2.2a.551.551,0,0,1,.551.551v1.6a.551.551,0,0,1-.551.551h-2.2a.551.551,0,0,1-.551-.551v-1.6a.551.551,0,0,1,.551-.551" transform="translate(-5.24 -189.553)" fill="#4a74fc"/>
      <path id="패스_9256" data-name="패스 9256" d="M12.608,205.47h2.2a.551.551,0,0,1,.551.551v1.6a.551.551,0,0,1-.551.551h-2.2a.551.551,0,0,1-.551-.551v-1.6a.551.551,0,0,1,.551-.551" transform="translate(-5.24 -190.041)" fill="#4a74fc"/>
      <path id="패스_9257" data-name="패스 9257" d="M12.608,211.322h2.2a.551.551,0,0,1,.551.551v1.6a.551.551,0,0,1-.551.551h-2.2a.551.551,0,0,1-.551-.551v-1.6a.551.551,0,0,1,.551-.551" transform="translate(-5.24 -190.528)" fill="#dbe3fe"/>
      <path id="패스_9258" data-name="패스 9258" d="M19.536,199.616h2.2a.551.551,0,0,1,.551.551v1.6a.551.551,0,0,1-.551.551h-2.2a.551.551,0,0,1-.551-.551v-1.6a.551.551,0,0,1,.551-.551" transform="translate(-5.817 -189.553)" fill="#4a74fc"/>
      <path id="패스_9259" data-name="패스 9259" d="M19.536,205.47h2.2a.551.551,0,0,1,.551.551v1.6a.551.551,0,0,1-.551.551h-2.2a.551.551,0,0,1-.551-.551v-1.6a.551.551,0,0,1,.551-.551" transform="translate(-5.817 -190.041)" fill="#4a74fc"/>
      <path id="패스_9260" data-name="패스 9260" d="M19.536,211.322h2.2a.551.551,0,0,1,.551.551v1.6a.551.551,0,0,1-.551.551h-2.2a.551.551,0,0,1-.551-.551v-1.6a.551.551,0,0,1,.551-.551" transform="translate(-5.817 -190.528)" fill="#dbe3fe"/>
      <path id="패스_9261" data-name="패스 9261" d="M26.464,199.616h2.2a.551.551,0,0,1,.551.551v1.6a.551.551,0,0,1-.551.551h-2.2a.551.551,0,0,1-.551-.551v-1.6a.551.551,0,0,1,.551-.551" transform="translate(-6.394 -189.553)" fill="#4a74fc"/>
      <path id="패스_9262" data-name="패스 9262" d="M26.464,205.47h2.2a.551.551,0,0,1,.551.551v1.6a.551.551,0,0,1-.551.551h-2.2a.551.551,0,0,1-.551-.551v-1.6a.551.551,0,0,1,.551-.551" transform="translate(-6.394 -190.041)" fill="#4a74fc"/>
      <path id="패스_9263" data-name="패스 9263" d="M26.464,211.322h2.2a.551.551,0,0,1,.551.551v1.6a.551.551,0,0,1-.551.551h-2.2a.551.551,0,0,1-.551-.551v-1.6a.551.551,0,0,1,.551-.551" transform="translate(-6.394 -190.528)" fill="#dbe3fe"/>
    </g>
    <rect id="사각형_1810" data-name="사각형 1810" width="44" height="44" transform="translate(-2037 2458)" fill="none"/>
  </g>
</svg>
