<svg xmlns="http://www.w3.org/2000/svg" width="105.511" height="91.686" viewBox="0 0 105.511 91.686">
    <path data-name="패스 12291" d="M110.156 97.329H4.645V12.222a6.579 6.579 0 0 1 6.579-6.579h92.354a6.579 6.579 0 0 1 6.579 6.579z" transform="translate(-4.645 -5.643)" style="fill:#f8f8fa"/>
    <path data-name="사각형 2894" transform="translate(20.207 29.012)" style="fill:#f0f0f0" d="M0 0h64.818v29.796H0z"/>
    <path data-name="패스 12292" d="M12.324 27.991h64.818v20.762a3.676 3.676 0 0 1-3.676 3.676H16a3.676 3.676 0 0 1-3.676-3.676z" transform="translate(7.883 30.817)" style="fill:#e9e9e9"/>
    <path data-name="패스 12293" d="M79.224 20.831H14.406a3.356 3.356 0 1 1 0-6.713h64.818a3.356 3.356 0 1 1 0 6.713" transform="translate(5.801 8.183)" style="fill:#ffae00"/>
    <path data-name="패스 12294" d="M25.177 27.157h-7.85a.925.925 0 0 1-.926-.924v-4.11a.928.928 0 0 1 .926-.926h7.85a.925.925 0 0 1 .924.926v4.11a.923.923 0 0 1-.924.924" transform="translate(14.534 19.733)" style="fill:#c8c8c8"/>
    <path data-name="패스 12295" d="M37.968 27.157h-7.85a.925.925 0 0 1-.926-.924v-4.11a.928.928 0 0 1 .926-.926h7.85a.925.925 0 0 1 .924.926v4.11a.923.923 0 0 1-.924.924" transform="translate(35.402 19.733)" style="fill:#c8c8c8"/>
    <path data-name="패스 12296" d="M31.573 27.157h-7.85a.925.925 0 0 1-.926-.924v-4.11a.928.928 0 0 1 .926-.926h7.85a.925.925 0 0 1 .924.926v4.11a.923.923 0 0 1-.924.924" transform="translate(24.969 19.733)" style="fill:#c8c8c8"/>
    <path data-name="사각형 2896" transform="translate(16.904 22.355)" style="fill:none" d="M0 0h71.423v60.892H0z"/>
</svg>
