<svg xmlns="http://www.w3.org/2000/svg" width="129.679" height="81.371" viewBox="0 0 129.679 81.371">
    <path data-name="패스 12297" d="M123.1 103.977H6.579A6.578 6.578 0 0 1 0 97.4V22.607l64.839 44.469 64.839-44.469V97.4a6.578 6.578 0 0 1-6.579 6.579" transform="translate(0 -22.607)" style="fill:#ffdf99"/>
    <path data-name="패스 12298" d="M69.973 36.975H57.007a9.294 9.294 0 0 0-5.76 2L.828 78.818a6.523 6.523 0 0 0 4.4 1.718h116.521a6.535 6.535 0 0 0 4.4-1.718L75.733 38.975a9.3 9.3 0 0 0-5.76-2" transform="translate(1.351 .834)" style="fill:#ffebbf"/>
</svg>
