<svg xmlns="http://www.w3.org/2000/svg" width="16" height="16" viewBox="0 0 16 16">
    <defs>
        <clipPath id="jriyng9xja">
            <path data-name="사각형 2806" style="fill:none" d="M0 0h16v16H0z"/>
        </clipPath>
    </defs>
    <g data-name="그룹 10961" style="clip-path:url(#jriyng9xja)">
        <path data-name="패스 12142" d="m18.549 9.243-3.411-2.674a1.107 1.107 0 0 0-1.357 0l-5.2 4.062v4.1a1.107 1.107 0 0 0 1.1 1.1h4.653v2.037a.239.239 0 0 0 .057.159.25.25 0 0 0 .346.029l3.811-3.027a.977.977 0 0 0 .309-.738V9.89a.8.8 0 0 0-.309-.647m-1.48 6.013-2.009 1.581V15.2H9.691a.485.485 0 0 1-.481-.481v-3.781l3.97-3.073.057-.045 3.833 3.011z" transform="translate(-5.719 -4.225)" style="fill:#4a74fc"/>
        <path data-name="패스 12143" d="M18.332 13.8v4.425L16.324 19.8v-1.634h-5.37a.484.484 0 0 1-.481-.481V13.9l3.97-3.072.057-.045z" transform="translate(-6.981 -7.191)" style="fill:#ffe600"/>
    </g>
</svg>
