<svg xmlns="http://www.w3.org/2000/svg" width="142" height="60" viewBox="0 0 142 60">
    <defs>
        <clipPath id="zizwauauxa">
            <path data-name="사각형 2725" style="fill:none" d="M0 0h46.191v40.898H0z"/>
        </clipPath>
    </defs>
    <g data-name="그룹 10796">
        <g data-name="그룹 10795" style="clip-path:url(#zizwauauxa)" transform="translate(85.809 17)">
            <path data-name="패스 11957" d="M42.42 0a3.77 3.77 0 0 1 3.77 3.77v6.471h-7.54V3.77A3.77 3.77 0 0 1 42.42 0" style="fill:#ffae00"/>
            <path data-name="패스 11958" d="M11.311 0H42.42a3.77 3.77 0 0 0-3.77 3.77v33.357a3.771 3.771 0 0 1-3.771 3.773H11.311a3.77 3.77 0 0 1-3.77-3.771V3.77A3.77 3.77 0 0 1 11.311 0" style="fill:#ffe864"/>
            <path data-name="패스 11959" d="M26.96 23.261h-2.235l-1.549-5.2c-.191-.737-.383-1.437-.542-2.148h-.08c-.16.711-.335 1.411-.544 2.148l-1.58 5.2h-2.283L15.832 13.9H17.6l1.117 4.869c.192.978.4 1.983.591 3h.081c.271-1.017.526-2.022.8-3l1.534-4.869h1.629l1.517 4.869c.271.992.543 2 .8 3h.063l.624-3 1.1-4.869h1.916z" style="fill:#ffae00"/>
            <path data-name="사각형 2723" transform="translate(27.29 17.904)" style="fill:#ffae00" d="M0 0h3.451v1.358H0z"/>
            <path data-name="사각형 2724" transform="translate(14.672 17.904)" style="fill:#ffae00" d="M0 0h3.451v1.358H0z"/>
            <path data-name="패스 11960" d="M31.091 33.679v3.448a3.77 3.77 0 0 0 3.77 3.771H3.77A3.77 3.77 0 0 1 0 37.127v-3.448z" style="fill:#ffae00"/>
        </g>
    </g>
    <path data-name="사각형 2833" style="fill:none" d="M0 0h142v60H0z"/>
</svg>
