<svg xmlns="http://www.w3.org/2000/svg" width="142" height="60" viewBox="0 0 142 60">
    <defs>
        <clipPath id="53cpjmdjia">
            <path data-name="사각형 2726" style="fill:none" d="M0 0h40.748v40H0z"/>
        </clipPath>
    </defs>
    <g data-name="그룹 10798">
        <g data-name="그룹 10797" style="clip-path:url(#53cpjmdjia)" transform="translate(91.252 18)">
            <path data-name="패스 11961" d="M40.749 4.062V16.3H35.39a2.876 2.876 0 0 0 .021-1.628 2.917 2.917 0 0 0-5.73.775 2.891 2.891 0 0 0 .128.853h-2.663a2.7 2.7 0 0 1-2.7-2.7v-2.686a2.876 2.876 0 0 0 1.707.045 2.917 2.917 0 1 0-1.707-5.576V0h12.241a4.062 4.062 0 0 1 4.062 4.062" style="fill:#00b493"/>
            <path data-name="패스 11962" d="M27.369 22.847a2.959 2.959 0 0 1-.128.853H21.66a2.859 2.859 0 0 1-.129-.853 2.919 2.919 0 1 1 5.838 0" style="fill:#00a081"/>
            <path data-name="패스 11963" d="M20.081 16.163a2.928 2.928 0 0 1-2.075 2.2 2.868 2.868 0 0 1-1.707-.045V23.7H0V11.464A4.062 4.062 0 0 1 4.064 7.4H16.3v5.383a2.916 2.916 0 0 1 3.782 3.378" style="fill:#00b493"/>
            <path data-name="패스 11964" d="M10.94 23.7a2.957 2.957 0 0 0 .026-1.63 2.92 2.92 0 1 0-5.607 1.63H0v12.238A4.061 4.061 0 0 0 4.062 40H16.3V23.7z" style="fill:#009a7b"/>
            <path data-name="패스 11965" d="M32.6 23.7v12.238A4.062 4.062 0 0 1 28.536 40H16.3v-5.52a2.919 2.919 0 1 1 0-5.257V23.7h5.36a2.845 2.845 0 0 1-.127-.776 2.954 2.954 0 0 1 2.45-2.959 2.92 2.92 0 0 1 3.386 2.882 2.959 2.959 0 0 1-.128.853z" style="fill:#00b493"/>
        </g>
    </g>
    <path data-name="사각형 2833" style="fill:none" d="M0 0h142v60H0z"/>
</svg>
