<svg xmlns="http://www.w3.org/2000/svg" width="68" height="68" viewBox="0 0 68 68">
    <path data-name="패스 14" d="m-303.506 25.807-22.2 17.322V64.57a4.307 4.307 0 0 0 4.289 4.289h26.99v12.108l13.2-10.426V43.382z" transform="translate(333.468 -16.545)" style="fill:#e7e7ea"/>
    <path data-name="패스 15" d="m-272.295 38.061-18.583-14.547a6.055 6.055 0 0 0-7.4 0l-28.337 22.114V67.91a6.029 6.029 0 0 0 6.054 6.054h25.309v11.1a1.322 1.322 0 0 0 2.186 1.009l20.769-16.481a5.4 5.4 0 0 0 1.682-4.037V41.593a4.467 4.467 0 0 0-1.68-3.532zm-48.264 32.457a2.62 2.62 0 0 1-2.607-2.607V47.31l21.609-16.733.31-.242 20.878 16.387v24.112l-10.931 8.6v-8.917z" transform="translate(332.613 -19.886)" style="fill:#929299"/>
    <path data-name="패스 9353" d="M2.03-19.09h-4.06l.343 13.368h3.374zM-2.188-1.978A2.186 2.186 0 0 0 .026.237a2.223 2.223 0 0 0 2.189-2.215A2.2 2.2 0 0 0 .026-4.166a2.165 2.165 0 0 0-2.214 2.188z" transform="translate(31 44)" style="fill:#929299"/>
</svg>
