<svg xmlns="http://www.w3.org/2000/svg" width="20" height="20" viewBox="0 0 20 20">
    <g data-name="그룹 11568" transform="translate(-7 -10581)">
        <circle data-name="타원 406" cx="9" cy="9" r="9" transform="translate(8 10582)" style="fill:#4a74fc"/>
        <path data-name="패스 12673" d="M-14.838-10.327h1.16l.746-3.046a.612.612 0 0 1 .579-.44.579.579 0 0 1 .563.44l.746 3.046h1.176l1.029-3.088a.582.582 0 0 1 .735-.367.582.582 0 0 1 .369.735l-.908 2.721h.356a.58.58 0 0 1 .581.581.58.58 0 0 1-.581.581h-.743l-1.029 3.088a.563.563 0 0 1-.574.381.581.581 0 0 1-.557-.423l-.746-3.046h-.851l-.746 3.046a.548.548 0 0 1-.541.423.551.551 0 0 1-.574-.381l-1.029-3.088h-.743a.581.581 0 0 1-.58-.582.581.581 0 0 1 .581-.581h.356l-.907-2.721a.581.581 0 0 1 .367-.735.581.581 0 0 1 .735.367zm.387 1.162.276.828.207-.828zm1.955-1.162h.271l-.127-.51zm1.743 1.162.223.828.276-.828z" transform="translate(29.352 10601.313)" style="fill:#edf1ff"/>
    </g>
</svg>
