<svg xmlns="http://www.w3.org/2000/svg" width="142" height="60" viewBox="0 0 142 60">
    <defs>
        <clipPath id="4t0p8ci5oa">
            <path data-name="사각형 2730" style="fill:none" d="M0 0h31.581v36.63H0z"/>
        </clipPath>
        <clipPath id="rn4hzcnrhb">
            <path data-name="사각형 2733" style="fill:none" d="M0 0h29.921v40H0z"/>
        </clipPath>
        <clipPath id="lwmw2i0lnc">
            <path data-name="사각형 2731" transform="translate(7.752 26.904)" style="fill:none" d="M0 0h14.611v3.76H0z"/>
        </clipPath>
    </defs>
    <g data-name="그룹 11015">
        <g data-name="그룹 10807">
            <g data-name="그룹 10806" style="clip-path:url(#4t0p8ci5oa)" transform="translate(100.419 21)">
                <path data-name="패스 11978" d="M29.7 22.034a8.271 8.271 0 0 0 1.876-5.257v-.986a15.79 15.79 0 1 0-31.576 0v.986a8.265 8.265 0 0 0 1.629 4.941" style="fill:#b5b5b6"/>
                <path data-name="패스 11979" d="M26.888 20.676h-.009v-1.764c0-2.458-3.646-4.733-4.61-6.586-1.479-2.844-2.9-4.7-6.671-4.7-3.539 0-4.783 1.629-6.277 4.179-1.136 1.939-5.005 4.41-5.005 7.1v1.764h-.154a3.6 3.6 0 0 0 0 7.207h.444a11.28 11.28 0 0 0 21.984 0h.3a3.6 3.6 0 1 0 0-7.207" style="fill:#f4d3b9"/>
                <path data-name="패스 11980" d="M11.346 23.964a.862.862 0 0 1-.862-.862v-.58a.862.862 0 0 1 1.724 0v.58a.862.862 0 0 1-.862.862" style="fill:#4d4d4d"/>
                <path data-name="패스 11981" d="M19.7 23.964a.862.862 0 0 1-.862-.862v-.58a.862.862 0 0 1 1.724 0v.58a.862.862 0 0 1-.862.862" style="fill:#4d4d4d"/>
                <path data-name="선 333" transform="translate(13.458 16.398)" style="stroke-miterlimit:10;stroke-linecap:round;stroke:#edc1a4;stroke-width:1.287px;fill:none" d="M0 0h3.884"/>
                <path data-name="선 334" transform="translate(12.031 19.091)" style="stroke-miterlimit:10;stroke-linecap:round;stroke:#edc1a4;stroke-width:1.287px;fill:none" d="M0 0h6.736"/>
                <path data-name="패스 11982" d="M15.755 25.818h-.121c-.695.014-4.188.265-4.207 3.952 0 0 3.351.948 4.268-1.245.916 2.193 4.267 1.245 4.267 1.245-.019-3.687-3.512-3.938-4.207-3.952" style="fill:#b5b5b6"/>
            </g>
        </g>
        <g data-name="그룹 10814">
            <g data-name="그룹 10813" style="clip-path:url(#rn4hzcnrhb)" transform="translate(62 18)">
                <g data-name="그룹 10812">
                    <g data-name="그룹 10811" style="clip-path:url(#rn4hzcnrhb)">
                        <path data-name="패스 11983" d="M21.5 6.771A6.771 6.771 0 1 1 14.727 0 6.77 6.77 0 0 1 21.5 6.771" style="fill:#e3e3e3"/>
                        <path data-name="패스 11984" d="M3.756 24.052H3.6a3.6 3.6 0 0 0 0 7.2h.443a11.276 11.276 0 0 0 21.976 0h.3a3.6 3.6 0 0 0 0-7.2h-.009L15.439 10.115z" style="fill:#f4d3b9"/>
                        <path data-name="패스 11985" d="M10.835 27.474a.7.7 0 0 1-.716-.678l-.016-.609a.7.7 0 1 1 1.393-.038l.017.609a.7.7 0 0 1-.678.716" style="fill:#4d4d4d"/>
                        <path data-name="패스 11986" d="M19.141 27.474a.7.7 0 0 1-.716-.678l-.016-.609a.7.7 0 1 1 1.393-.038l.017.609a.7.7 0 0 1-.678.716" style="fill:#4d4d4d"/>
                        <path data-name="패스 11987" d="M14.727 8.874S5.321 4.4 1.423 13.088c-3.511 7.831 1.938 11.948 1.938 11.948s10.8-.3 11.537-9.9" style="fill:#ededed"/>
                        <path data-name="패스 11988" d="M14.727 8.874s9.148-4.985 13.514 3.482c3.933 7.628-1.284 12.036-1.284 12.036s-10.8.3-12.059-9.254" style="fill:#ededed"/>
                        <path data-name="패스 11989" d="M12.63 33.224a2.731 2.731 0 0 0 2.827 1.705 2.727 2.727 0 0 0 2.729-1.857" style="stroke:#eda9a4;stroke-width:1.301px;stroke-miterlimit:10;stroke-linecap:round;fill:none"/>
                        <g data-name="그룹 10810" style="opacity:.8">
                            <g data-name="그룹 10809">
                                <g data-name="그룹 10808" style="clip-path:url(#lwmw2i0lnc)">
                                    <path data-name="패스 11990" d="M10.729 30.3c1.442 0 2.611-.8 2.611-1.793H8.118c0 .99 1.169 1.793 2.611 1.793" style="fill:#fff"/>
                                    <path data-name="패스 11991" d="M10.729 30.3c1.442 0 2.611-.8 2.611-1.793H8.118c0 .993 1.169 1.793 2.611 1.793z" style="stroke-width:.732px;stroke:#fff;stroke-linejoin:round;stroke-linecap:round;fill:none"/>
                                    <path data-name="패스 11992" d="M16.8 28.5c0-.668-.788-1.209-1.76-1.209s-1.761.541-1.761 1.209" style="stroke-width:.784px;stroke:#fff;stroke-linejoin:round;stroke-linecap:round;fill:none"/>
                                    <path data-name="패스 11993" d="M19.387 30.3c1.442 0 2.613-.8 2.613-1.8h-5.224c0 .99 1.169 1.793 2.611 1.793" style="fill:#fff"/>
                                    <path data-name="패스 11994" d="M19.387 30.3c1.442 0 2.613-.8 2.613-1.8h-5.224c0 1 1.169 1.8 2.611 1.8z" style="stroke-width:.732px;stroke:#fff;stroke-linejoin:round;stroke-linecap:round;fill:none"/>
                                </g>
                            </g>
                        </g>
                    </g>
                </g>
            </g>
        </g>
    </g>
    <path data-name="사각형 2833" style="fill:none" d="M0 0h142v60H0z"/>
</svg>
