<?xml version="1.0" encoding="utf-8"?>
<!-- Generator: Adobe Illustrator 26.0.1, SVG Export Plug-In . SVG Version: 6.00 Build 0)  -->
<svg version="1.1" id="Layer_1" xmlns="http://www.w3.org/2000/svg" xmlns:xlink="http://www.w3.org/1999/xlink" x="0px" y="0px"
	 viewBox="0 0 100 100" style="enable-background:new 0 0 100 100;" xml:space="preserve">
<style type="text/css">
	.st0{fill:#A1A1A9;}
</style>
<g>
	<path class="st0" d="M50.1,24.1c-15.6,0-28.2,10-28.2,22.2c0,8.1,5.4,15,13.4,19c-0.6,2.1-2.1,8-2.5,9.2c-0.4,1.5,0.6,1.5,1.2,1.1
		c0.6-0.3,7.7-5.3,10.9-7.4c1.7,0.2,3.5,0.4,5.3,0.4c15.6,0,28.2-10,28.2-22.2C78.3,34.1,65.7,24.1,50.1,24.1z M36.2,52.6
		c0,0.3-0.2,0.8-0.4,1c-0.2,0.3-0.7,0.4-1,0.4h-0.3c-0.3,0-0.8-0.2-1-0.4c-0.3-0.2-0.4-0.7-0.4-1v-9.9h-2.7c-0.8,0-1.3-0.7-1.3-1.3
		c0-0.7,0.7-1.3,1.3-1.3h8.3c0.9,0,1.5,0.6,1.5,1.3c0,0.8-0.7,1.3-1.3,1.3h-2.6L36.2,52.6L36.2,52.6z M49.5,53.7
		c-0.7,0.2-1.5-0.1-1.7-0.9l-0.7-2h-5.6l-0.8,2c-0.2,0.8-1,1.1-1.7,0.9c-0.8-0.2-1.1-1-0.9-1.7l4-10.9c0-0.1,0.1-0.1,0.1-0.2
		c0.2-0.8,1.1-1.3,2-1.3c1,0,1.7,0.6,1.9,1.2l4,11.3C50.8,52.8,50.3,53.5,49.5,53.7z M58.5,53.7h-5.6c-0.8,0-1.3-0.6-1.3-1.3
		c0-0.1,0-0.1,0-0.2c0,0,0-0.1,0-0.2V41c0-0.9,0.7-1.5,1.5-1.5c0.9,0,1.5,0.7,1.5,1.5v10.1h4c0.7,0,1.3,0.6,1.3,1.2
		C59.9,53.2,59.3,53.7,58.5,53.7z M70.6,53.5c-0.7,0.4-1.5,0.3-1.9-0.3l-4-5.3l-0.9,0.9v3.5c0,0.9-0.7,1.5-1.5,1.5
		c-0.9,0-1.5-0.7-1.5-1.5V41c0-0.9,0.7-1.5,1.5-1.5c0.9,0,1.5,0.7,1.5,1.5V45l4.7-4.7c0.6-0.6,1.3-0.6,1.9,0s0.6,1.3,0,1.9l-3.9,3.9
		l4.3,5.6C71.2,52.4,71.1,53.2,70.6,53.5z"/>
	<path class="st0" d="M44.5,43.1l-1.9,5.4h3.9L44.5,43.1L44.5,43.1z"/>
</g>
</svg>
