<?xml version="1.0" encoding="utf-8"?>
<!-- Generator: Adobe Illustrator 26.2.1, SVG Export Plug-In . SVG Version: 6.00 Build 0)  -->
<svg version="1.1" id="Layer_1" xmlns="http://www.w3.org/2000/svg" xmlns:xlink="http://www.w3.org/1999/xlink" x="0px" y="0px"
	 viewBox="0 0 326 100" style="enable-background:new 0 0 326 100;" 
	 
	 xml:space="preserve">



<style type="text/css">
	.st0{fill:#3C3E50;}
	.st1{fill:#4A74FC;}
	.st2{fill:#FFE600;}
</style>
<g>
	<g id="그룹_2748">
		<path id="패스_8948" class="st0" d="M137,27.1h-6.7v5.3h-8.6v5.1h4.9l-0.8,0.9c-3.9,4.3-3.5,11,0.9,14.9s11,3.5,14.9-0.9
			c3.5-4,3.5-10,0-14l-0.8-0.9h4.6v-5.1h-8.2L137,27.1z M138.4,45.3c0,2.7-2.2,4.8-4.8,4.8s-4.8-2.2-4.8-4.8c0-2.7,2.2-4.8,4.8-4.8
			C136.3,40.5,138.4,42.7,138.4,45.3L138.4,45.3"/>
		<path id="패스_8949" class="st0" d="M156,32.4h-6.7v23.8h6.7v-8.1h5.2v-7.3H156L156,32.4z"/>
		<path id="패스_8950" class="st0" d="M303,51.9h-7.2V59h-8.2v6.2h23.2V59H303L303,51.9z"/>
		<path id="패스_8951" class="st0" d="M304.2,80.4h6.7V68h-23.1v5.8h16.4L304.2,80.4z"/>
		<path id="패스_8952" class="st0" d="M311.8,51l-8.9-12.4h8.8v-6.2H287v6.2h8.7l-8.9,12.4l5,4l7.6-10.5l7.6,10.5L311.8,51z"/>
		<rect id="사각형_288" x="207.5" y="59.2" class="st0" width="21.3" height="6"/>
		<rect id="사각형_289" x="233.6" y="32.4" class="st0" width="6.7" height="23.8"/>
		<path id="패스_8953" class="st0" d="M222,33v-5.8h-6.7V33c-6.3,1.9-9.9,8.6-8,14.9s8.6,9.9,14.9,8c5-1.5,8.5-6.2,8.5-11.5
			C230.5,39.1,227,34.5,222,33 M218.6,50.2c-3.1,0-5.6-2.5-5.6-5.6c0-3.1,2.5-5.6,5.6-5.6c3.1,0,5.6,2.5,5.6,5.6v0
			C224.1,47.7,221.7,50.2,218.6,50.2"/>
		<path id="패스_8954" class="st0" d="M97,61.9H85V68H116v-6.1h-12v-4.8H97L97,61.9z"/>
		<path id="패스_8955" class="st0" d="M84.9,49.9l4.4,4.4h9.2v-6.4h-7.1v-9h7.1v-6.4H84.9V49.9z"/>
		<path id="패스_8956" class="st0" d="M116,38.9v-6.4h-13.5v17.5l4.3,4.4h9.2v-6.4h-7v-9L116,38.9z"/>
		<path id="패스_8957" class="st0" d="M195.8,32.4H189v23.8h6.7v-8.1h5.2v-7.3h-5.2L195.8,32.4z"/>
		<path id="패스_8958" class="st0" d="M173.6,49.9V32.4h-6.7V52l4.3,4.3h13.8v-6.3H173.6z"/>
		<path id="패스_8959" class="st0" d="M276.2,32.4h-6.7v23.8h6.7v-8.2h5.2v-7.2h-5.2L276.2,32.4z"/>
		<path id="패스_8960" class="st0" d="M260.3,32.4h-13.8v6.3h11.3v17.5h2.5l4.3-4.3V36.7L260.3,32.4z"/>
	</g>
	<g id="그룹_2749">
		<path id="패스_8961" class="st1" d="M66.2,31.9L47.6,17.3c-2.2-1.7-5.2-1.7-7.4,0L11.7,39.5v22.4c0,3.3,2.7,6,6,6h25.4V79
			c0,0.3,0.1,0.6,0.3,0.9c0.5,0.6,1.3,0.6,1.9,0.2l20.8-16.5c1.1-1,1.7-2.5,1.7-4v-24C67.9,34.1,67.3,32.8,66.2,31.9 M58.1,64.8
			l-11,8.6v-8.9H17.8c-1.4,0-2.6-1.2-2.6-2.6V41.2l21.7-16.8l0.3-0.2l20.9,16.4V64.8z"/>
		<path id="패스_8962" class="st2" d="M58.1,40.6v24.2l-11,8.6v-8.9H17.8c-1.4,0-2.6-1.2-2.6-2.6V41.2l21.7-16.8l0.3-0.2
			L58.1,40.6z"/>
	</g>
</g>
</svg>
