<?xml version="1.0" encoding="utf-8"?>
<!-- Generator: Adobe Illustrator 27.0.1, SVG Export Plug-In . SVG Version: 6.00 Build 0)  -->
<svg version="1.1" id="레이어_1" xmlns="http://www.w3.org/2000/svg" xmlns:xlink="http://www.w3.org/1999/xlink" x="0px"
	 y="0px" viewBox="0 0 10 10" style="enable-background:new 0 0 10 10;" xml:space="preserve">
<style type="text/css">
	.st0{fill:#333333;}
	.st1{fill:none;}
</style>
<g id="close" transform="translate(-7815 -6383)">
	<g id="그룹_2649" transform="translate(7817 6385)">
		<path id="선_16" class="st0" d="M0,6.7c-0.1,0-0.2,0-0.3-0.1c-0.2-0.2-0.2-0.4,0-0.6c0,0,0,0,0,0L6-0.3c0.2-0.2,0.4-0.2,0.6,0
			c0,0,0,0,0,0c0.2,0.2,0.2,0.4,0,0.6c0,0,0,0,0,0L0.3,6.5C0.2,6.6,0.1,6.7,0,6.7z"/>
		<path id="선_17" class="st0" d="M6.2,6.7C6.1,6.7,6,6.6,6,6.5l-6.2-6.2c-0.2-0.2-0.2-0.4,0-0.6c0,0,0,0,0,0
			c0.2-0.2,0.4-0.2,0.6,0c0,0,0,0,0,0L6.5,6c0.2,0.2,0.2,0.4,0,0.6C6.5,6.6,6.4,6.7,6.2,6.7z"/>
	</g>
	<rect id="사각형_224" x="7815" y="6383" class="st1" width="10" height="10"/>
</g>
</svg>
