<svg xmlns="http://www.w3.org/2000/svg" width="24" height="24" viewBox="0 0 24 24">
    <g data-name="그룹 8207">
        <path data-name="타원 46" d="M7.351-.5A7.851 7.851 0 1 1-.5 7.351 7.86 7.86 0 0 1 7.351-.5zm0 14.7A6.851 6.851 0 1 0 .5 7.351 6.859 6.859 0 0 0 7.351 14.2z" transform="translate(3.778 3.428)" style="fill:#2f2f2f"/>
        <path data-name="선 1" d="M4.2 4.811a.5.5 0 0 1-.358-.151L-.358.349a.5.5 0 0 1 .01-.707.5.5 0 0 1 .707.01l4.2 4.311a.5.5 0 0 1-.358.849z" transform="translate(16.027 16.261)" style="fill:#2f2f2f"/>
    </g>
    <path data-name="사각형 1897" style="fill:none" d="M0 0h24v24H0z"/>
</svg>
