<svg xmlns="http://www.w3.org/2000/svg" width="24" height="24" viewBox="0 0 24 24">
    <path data-name="패스 11619" d="M21.5-7.632a9.813 9.813 0 0 0-10.148-10.056A9.793 9.793 0 0 0 1.224-7.632 9.813 9.813 0 0 0 11.376 2.424a10.446 10.446 0 0 0 4.944-1.176l2.76 3.48 1.968-1.488L18.36-.168a9.934 9.934 0 0 0 3.14-7.464zM11.376.12a7.446 7.446 0 0 1-7.632-7.752 7.413 7.413 0 0 1 7.608-7.752 7.433 7.433 0 0 1 7.632 7.752 7.8 7.8 0 0 1-2.136 5.544L13.3-6.576l-1.972 1.512 3.5 4.416a7.776 7.776 0 0 1-3.452.768z" transform="translate(.776 18.688)" style="fill:#4a74fc"/>
    <path data-name="사각형 2591" style="fill:none" d="M0 0h24v24H0z"/>
</svg>
