<?xml version="1.0" encoding="utf-8"?>
<!-- Generator: Adobe Illustrator 26.2.1, SVG Export Plug-In . SVG Version: 6.00 Build 0)  -->
<svg version="1.1" id="Layer_1" xmlns="http://www.w3.org/2000/svg" xmlns:xlink="http://www.w3.org/1999/xlink" x="0px" y="0px"
	 viewBox="0 0 100 100" style="enable-background:new 0 0 100 100;" xml:space="preserve">
<style type="text/css">
	.st0{fill:#FFFFFF;}
	.st1{fill:#4A74FC;}
</style>
<g>
	<ellipse class="st0" cx="50.3" cy="50" rx="41.4" ry="41.4"/>
	<path class="st1" d="M50.3,12.1c20.9,0,37.9,17,37.9,37.9s-17,37.9-37.9,37.9S12.4,70.9,12.4,50S29.4,12.1,50.3,12.1 M50.3,5.1
		C25.5,5.1,5.4,25.2,5.4,50s20.1,44.9,44.9,44.9S95.1,74.8,95.1,50S75,5.1,50.3,5.1L50.3,5.1z"/>
</g>
<g>
	<path class="st1" d="M49.9,61.6c-1.8,0-3.2,0.6-4.4,1.7c-1.2,1.2-1.7,2.6-1.7,4.4c0,1.8,0.6,3.2,1.7,4.3c1.2,1.1,2.6,1.7,4.4,1.7
		c1.8,0,3.2-0.6,4.4-1.7s1.7-2.6,1.7-4.3c0-1.8-0.6-3.2-1.7-4.4C53.2,62.2,51.7,61.6,49.9,61.6z"/>
	<path class="st1" d="M63.9,31.3c-1.2-2.1-3-3.7-5.4-4.8c-2.3-1.2-5.1-1.7-8.4-1.7c-3.1,0-5.8,0.6-8.2,1.9s-4.3,3-5.6,5.2
		c-1.4,2.2-2,4.7-2,7.4c0,0-0.3,4.4,4.9,4.4c5.3,0,5.1-4.4,5.1-4.4c0-1.6,0.5-2.9,1.6-4s2.5-1.6,4.3-1.6s3.2,0.4,4.2,1.2
		s1.5,2,1.5,3.4c0,1.3-0.4,2.4-1.2,3.4s-2.1,2.2-4,3.7c-2.1,1.6-3.6,3.3-4.5,5.1s-1.3,4.1-1.3,7h9.5c0-1.6,0.4-3,1.2-4.3
		c0.8-1.2,2.2-2.7,4.3-4.3c3.9-3,5.8-6.5,5.8-10.5C65.7,35.7,65.1,33.4,63.9,31.3z"/>
</g>
</svg>
