<svg xmlns="http://www.w3.org/2000/svg" width="16" height="16" viewBox="0 0 16 16">
    <path data-name="패스 1509" d="m66.775 407.031 1.6 3.247a.44.44 0 0 0 .331.241l3.583.521a.441.441 0 0 1 .244.751l-2.592 2.528a.438.438 0 0 0-.127.388l.613 3.569a.44.44 0 0 1-.358.51.449.449 0 0 1-.281-.044l-3.2-1.686a.439.439 0 0 0-.408 0l-3.205 1.686a.439.439 0 0 1-.593-.184.434.434 0 0 1-.044-.279l.612-3.568a.436.436 0 0 0-.126-.389l-2.592-2.528a.439.439 0 0 1-.008-.622.443.443 0 0 1 .252-.128l3.584-.521a.439.439 0 0 0 .33-.241l1.6-3.247a.44.44 0 0 1 .788 0z" style="fill:#ffe600" transform="translate(-58.382 -405.307)"/>
    <path data-name="사각형 1591" style="fill:none" d="M0 0h16v16H0z"/>
</svg>
