<svg xmlns="http://www.w3.org/2000/svg" width="34" height="34" viewBox="0 0 34 34">
    <g data-name="그룹 11444" transform="translate(4.097 4.113)">
        <circle data-name="타원 389" cx="1.717" cy="1.717" r="1.717" transform="translate(12.036 13.763)" style="fill:#4a74fc"/>
        <path data-name="패스 12580" d="M24.444 28.807a1.717 1.717 0 1 1-1.717-1.717 1.718 1.718 0 0 1 1.717 1.717z" transform="translate(-7.248 -8.176)" style="fill:#4a74fc"/>
        <circle data-name="타원 390" cx="1.717" cy="1.717" r="1.717" transform="translate(15.479 10.32)" style="fill:#4a74fc"/>
        <path data-name="패스 12581" d="M28.484 24.767a1.717 1.717 0 1 1-1.717-1.717 1.718 1.718 0 0 1 1.717 1.717z" transform="translate(-7.854 -7.57)" style="fill:#4a74fc"/>
        <circle data-name="타원 391" cx="1.717" cy="1.717" r="1.717" transform="translate(18.913 6.878)" style="fill:#4a74fc"/>
        <path data-name="패스 12582" d="M32.534 20.717A1.717 1.717 0 1 1 30.817 19a1.718 1.718 0 0 1 1.717 1.717z" transform="translate(-8.462 -6.963)" style="fill:#4a74fc"/>
        <path data-name="패스 12583" d="M36.574 16.677a1.717 1.717 0 1 1-1.717-1.717 1.718 1.718 0 0 1 1.717 1.717z" transform="translate(-9.068 -6.357)" style="fill:#4a74fc"/>
        <path data-name="패스 12584" d="m21.3 7.772-8.39 8.389a5.981 5.981 0 0 1-.468-6.426l-.892-.892a1.929 1.929 0 0 0-3.29 1.36v19.55a.862.862 0 0 1-.858.858H5.678a.867.867 0 0 1-.859-.858v-19.2A5.864 5.864 0 0 1 6 6.939a5.284 5.284 0 0 1 7.981-.527l.892.893a5.981 5.981 0 0 1 6.426.468z" transform="translate(-4.82 -4.838)" style="fill:#edf1ff"/>
        <path data-name="패스 12585" d="m24.808 9.654-9.1 9.1a.867.867 0 0 1-1.215 0l-.6-.612a.852.852 0 0 1 0-1.216l.348-.357 8.739-8.743a.867.867 0 0 1 1.216 0l.612.612a.852.852 0 0 1 0 1.216z" transform="translate(-6.141 -5.249)" style="fill:#b7c7fe"/>
    </g>
</svg>
