<svg xmlns="http://www.w3.org/2000/svg" width="34" height="34" viewBox="0 0 34 34">
    <path data-name="패스 12565" d="M7.27 19.358A1.763 1.763 0 0 1 5.51 17.6v-3.52a1.76 1.76 0 0 1 3.519 0v3.52a1.763 1.763 0 0 1-1.759 1.758z" transform="translate(-.827 -1.848)" style="fill:#3857bd"/>
    <path data-name="패스 12566" d="M25.745 19.876H11.72V7.559a3.5 3.5 0 0 1 3.468-3.519h7.038a3.515 3.515 0 0 1 3.519 3.519z" transform="translate(-1.758 -.606)" style="fill:#4a74fc"/>
    <path data-name="패스 12567" d="M33.869 14.08v3.52a1.76 1.76 0 0 1-3.519 0v-3.52a1.76 1.76 0 0 1 3.519 0z" transform="translate(-4.553 -1.848)" style="fill:#3857bd"/>
    <path data-name="패스 12568" d="m28.6 25.628-.587-1.76a1.749 1.749 0 0 0-1.666-1.2H9.935a1.756 1.756 0 0 0-1.675 1.2l-.587 1.76a1.755 1.755 0 0 0 1.615 2.32h17.647a1.759 1.759 0 0 0 1.665-2.32z" transform="translate(-1.137 -3.401)" style="fill:#3857bd"/>
    <path data-name="사각형 3026" transform="translate(15.24 24.548)" style="fill:#dadadf" d="M0 0h3.519v3.519H0z"/>
    <path data-name="패스 12569" d="M23.419 35.811h-8.738a.9.9 0 0 1-.986-1.054l.518-1.811a.993.993 0 0 1 .987-.646h7.693a1 1 0 0 1 .986.646l.519 1.811a.9.9 0 0 1-.986 1.054z" transform="translate(-2.05 -4.845)" style="fill:#c1c1c9"/>
</svg>
