<?xml version="1.0" encoding="utf-8"?>
<!-- Generator: Adobe Illustrator 27.0.1, SVG Export Plug-In . SVG Version: 6.00 Build 0)  -->
<svg version="1.1" id="Layer_1" xmlns="http://www.w3.org/2000/svg" xmlns:xlink="http://www.w3.org/1999/xlink" x="0px" y="0px"
	 viewBox="0 0 100 100" style="enable-background:new 0 0 100 100;" xml:space="preserve">
<style type="text/css">
	.st0{fill:none;}
	.st1{fill:#A1A1A9;}
</style>
<g id="youtube-2" transform="translate(5.508)">
	<rect id="사각형_2854" x="11.3" y="15.3" class="st0" width="68.4" height="68.4"/>
	<g id="그룹_11772" transform="translate(275.998 2282.397)">
		<path id="제외_1" class="st1" d="M-230.5-2213.7c0,0-4.3,0-9.1-0.1c-2.8-0.1-5.2-0.2-7.2-0.3c-1.7-0.1-3.5-0.3-5.2-0.7
			c-2.3-0.6-4.2-2.5-4.8-4.8c-0.6-2.7-0.9-5.4-1-8.2c-0.1-2.7-0.1-5-0.1-5s0-2.3,0.1-5c0.1-2.8,0.4-5.5,1-8.2
			c0.3-1.2,0.9-2.2,1.8-3.1c0.8-0.9,1.9-1.5,3-1.8c1.7-0.4,3.4-0.6,5.1-0.6c2-0.1,4.4-0.3,7.2-0.3c4.8-0.1,9.1-0.1,9.1-0.1
			s4.3,0,9.1,0.1c2.8,0.1,5.2,0.2,7.2,0.3c1.7,0.1,3.5,0.3,5.2,0.7c2.4,0.6,4.2,2.5,4.8,4.8c0.6,2.7,0.9,5.4,1,8.2
			c0.1,2.7,0.1,5,0.1,5s0,2.3-0.1,5c-0.1,2.8-0.4,5.5-1,8.2c-0.6,2.3-2.5,4.2-4.8,4.8c-1.7,0.4-3.4,0.6-5.2,0.6
			c-1.9,0.1-4.4,0.3-7.2,0.3C-226.2-2213.7-230.5-2213.7-230.5-2213.7z M-236-2241.1L-236-2241.1v16.4l14.2-8.2L-236-2241.1
			L-236-2241.1z"/>
	</g>
</g>
</svg>
